<svg id="Réteg_1" data-name="Réteg 1" xmlns="http://www.w3.org/2000/svg" viewBox="0 0 65.17 80"><title>book</title><g id="Pink-Icon-_-Book" data-name="Pink-Icon-/-Book"><g id="icon"><path id="Fill-1" d="M60.87,66.82a1.12,1.12,0,0,0-.24-.19,1.17,1.17,0,0,0-.27-.15l-.29-.08a1.56,1.56,0,0,0-1.41.42,2.31,2.31,0,0,0-.2.24c-.05.09-.1.18-.14.27a1.4,1.4,0,0,0-.09.29,1.63,1.63,0,0,0,0,.31,1.53,1.53,0,0,0,0,.3,1.4,1.4,0,0,0,.09.29,2.44,2.44,0,0,0,.14.28,2.2,2.2,0,0,0,.2.23,1.57,1.57,0,0,0,1.1.46,1.55,1.55,0,0,0,.31,0,1.4,1.4,0,0,0,.29-.09,1.71,1.71,0,0,0,.27-.14,1.59,1.59,0,0,0,.24-.2,1.37,1.37,0,0,0,.19-.23,1.82,1.82,0,0,0,.15-.27,1.71,1.71,0,0,0,.09-.3,1.53,1.53,0,0,0,0-.3,1.59,1.59,0,0,0-.46-1.11" transform="translate(-7 0)" style="fill:#dd2b57"/><path id="Fill-3" d="M20.49,8.17a1.4,1.4,0,0,0-.09-.29,1.74,1.74,0,0,0-.14-.27,1.5,1.5,0,0,0-.2-.24,2.11,2.11,0,0,0-.23-.19L19.56,7,19.27,7a1.26,1.26,0,0,0-.61,0l-.3.08-.27.15a2.11,2.11,0,0,0-.23.19,1.16,1.16,0,0,0-.2.24c-.05.09-.1.18-.14.27a1.4,1.4,0,0,0-.09.29,1.55,1.55,0,0,0,0,.31,1.53,1.53,0,0,0,0,.3,1.4,1.4,0,0,0,.09.29,2.44,2.44,0,0,0,.14.28,1.43,1.43,0,0,0,.2.23l.23.2.27.14a1.71,1.71,0,0,0,.3.09l.3,0,.31,0,.29-.09.27-.14.23-.2a1.43,1.43,0,0,0,.2-.23,1.47,1.47,0,0,0,.14-.28,1.4,1.4,0,0,0,.09-.29,1.53,1.53,0,0,0,0-.3,1.55,1.55,0,0,0,0-.31" transform="translate(-7 0)" style="fill:#dd2b57"/><path id="Fill-5" d="M69.05,30.59l-3.67-2a1.58,1.58,0,0,0-.75-.19,1.52,1.52,0,0,0-.75.19l-3.67,2V3.12h8.84ZM54.29,66.36H16.79a3,3,0,0,1,2-1.45h0l.26,0h0l.31,0H67.48v6.1H19.42a3,3,0,0,1-2.59-1.45H54.29a1.57,1.57,0,0,0,0-3.13Zm14.76-4.64H20.52V14a1.56,1.56,0,1,0-3.12,0V62.06a6.2,6.2,0,0,0-4.12,5.19h0c0,.09,0,.18,0,.27v0c0,.1,0,.21,0,.31a6.18,6.18,0,0,0,6.17,6.17H69.05v2.81H17.12a7,7,0,0,1-7-7V10.12a7,7,0,0,1,7-7h40v30.1A1.57,1.57,0,0,0,59.4,34.6l5.23-2.86,4.42,2.42V61.72ZM70.61,0H17.12A10.11,10.11,0,0,0,7,10.12V69.88A10.11,10.11,0,0,0,17.12,80H70.61a1.56,1.56,0,0,0,1.56-1.56V72.5a1.56,1.56,0,0,0-1.56-1.56v-6.1a1.56,1.56,0,0,0,1.56-1.56V1.56A1.56,1.56,0,0,0,70.61,0Z" transform="translate(-7 0)" style="fill:#dd2b57"/></g></g></svg>