<svg id="Réteg_1" data-name="Réteg 1" xmlns="http://www.w3.org/2000/svg" viewBox="0 0 52.76 80"><title>camera-4</title><g id="Pink-Icon-_-Camera-4" data-name="Pink-Icon-/-Camera-4"><g id="icon"><path id="Fill-1" d="M42,56.67V29.1H44.9L51.64,47ZM36.35,12h9V8.49h-9Zm2.44,44.71L29.1,47.07l6.77-18h2.92V56.75ZM33.16,6.9V12H31.55V3.19H50.14V12H48.53V6.9a1.6,1.6,0,0,0-1.59-1.6H34.75a1.6,1.6,0,0,0-1.59,1.6Zm-4.8,3-3.48.81V4.51l3.48.83Zm25-5.12h3.14V3.19H53.33ZM63.86,70.42,47.49,27a1.59,1.59,0,0,0-1.49-1H42V22.16H56.08a1.59,1.59,0,1,0,0-3.18H42V15.22h9.77a1.59,1.59,0,0,0,1.59-1.59V8h4.73a1.6,1.6,0,0,0,1.6-1.6V1.59A1.6,1.6,0,0,0,58.06,0H30a1.6,1.6,0,0,0-1.6,1.59v.47L23.66,1a1.55,1.55,0,0,0-1.36.3,1.59,1.59,0,0,0-.6,1.25V12.7a1.58,1.58,0,0,0,1.59,1.59,1.47,1.47,0,0,0,.36,0l4.71-1.1v.48A1.6,1.6,0,0,0,30,15.22h8.83v10.7h-4a1.6,1.6,0,0,0-1.49,1L14.1,77.84a1.6,1.6,0,0,0,3,1.13L27.87,50.34,38.79,61.26V78.41a1.59,1.59,0,0,0,3.18,0V61.18l10.9-10.9,8,21.27a1.59,1.59,0,1,0,3-1.13Z" transform="translate(-14 0)" style="fill:#dd2b57"/><path id="Fill-4" d="M66.66,77.84l-.54-1.43a1.59,1.59,0,1,0-3,1.12L63.68,79a1.58,1.58,0,0,0,1.49,1,1.59,1.59,0,0,0,1.49-2.16" transform="translate(-14 0)" style="fill:#dd2b57"/></g></g></svg>