<svg id="Réteg_1" data-name="Réteg 1" xmlns="http://www.w3.org/2000/svg" viewBox="0 0 80 43.51"><title>camera-2</title><g id="Pink-Icon-_-Camera-2" data-name="Pink-Icon-/-Camera-2"><g id="icon"><path id="Fill-1" d="M75.71,30.11h1.1V22.87h-1.1Zm-3.19-2.6H66a3.28,3.28,0,0,0-3.28,3.28v1.78H49.49v-3.7a3.39,3.39,0,0,1,3.39-3.39H72.52ZM62.71,58.32H55.63V45.5A1.59,1.59,0,0,0,54,43.91H28a1.6,1.6,0,0,0-1.6,1.59V58.32H19.29V35.75H62.71V58.32Zm-33.16,0H52.44V47.1H29.55ZM16.1,53.43,8.55,55.76V38.26l7.55,2.38Zm-10.73,3-2.18.13V37.46l2.18.13Zm12.11-32H7.27a1.63,1.63,0,1,1,0-3.25H17.48Zm60.93-4.75h-4.3a1.59,1.59,0,0,0-1.59,1.59v1H52.88a6.59,6.59,0,0,0-6.58,6.58v3.7H40.6V32.5A11.44,11.44,0,0,0,29.17,21.07h-8.5V19.59A1.6,1.6,0,0,0,19.07,18H7.27a4.82,4.82,0,1,0,0,9.63h11.8a1.6,1.6,0,0,0,1.6-1.6V24.25h8.5a8.26,8.26,0,0,1,8.24,8.25v.07H17.69a1.59,1.59,0,0,0-1.59,1.59V37.3L7.44,34.57a1.8,1.8,0,0,0-.38-.07h0l-5.36-.32A1.59,1.59,0,0,0,0,35.77V58.24a1.59,1.59,0,0,0,1.59,1.59h.1l5.36-.32h0a1.61,1.61,0,0,0,.37-.07l8.67-2.67v3.15a1.59,1.59,0,0,0,1.59,1.59H64.3a1.59,1.59,0,0,0,1.59-1.59V30.79a.1.1,0,0,1,.1-.1h6.53v1a1.59,1.59,0,0,0,1.59,1.59h4.3A1.59,1.59,0,0,0,80,31.71V21.28a1.59,1.59,0,0,0-1.59-1.59Z" transform="translate(0 -18)" style="fill:#dd2b57"/><path id="Fill-3" d="M49,48.66h-.52a1.6,1.6,0,1,0,0,3.19H49a1.6,1.6,0,0,0,0-3.19" transform="translate(0 -18)" style="fill:#dd2b57"/><path id="Fill-4" d="M43.35,48.66H33.18a1.6,1.6,0,1,0,0,3.19H43.35a1.6,1.6,0,0,0,0-3.19" transform="translate(0 -18)" style="fill:#dd2b57"/><path id="Fill-5" d="M22.9,37.16a1.75,1.75,0,1,0,1.75,1.75,1.75,1.75,0,0,0-1.75-1.75" transform="translate(0 -18)" style="fill:#dd2b57"/><path id="Fill-6" d="M28.42,37.16a1.75,1.75,0,1,0,1.75,1.75,1.75,1.75,0,0,0-1.75-1.75" transform="translate(0 -18)" style="fill:#dd2b57"/></g></g></svg>