<svg id="Réteg_1" data-name="Réteg 1" xmlns="http://www.w3.org/2000/svg" viewBox="0 0 80 38.89"><title>camera-1</title><g id="Pink-Icon-_-Camera-1" data-name="Pink-Icon-/-Camera-1"><g id="icon"><path id="Fill-1" d="M33.22,39.94H32.7a1.6,1.6,0,0,0,0,3.19h.52a1.6,1.6,0,0,0,0-3.19" transform="translate(0 -20.16)" style="fill:#dd2b57"/><path id="Fill-3" d="M48.33,39.94H38.27a1.6,1.6,0,1,0,0,3.19H48.33a1.6,1.6,0,0,0,0-3.19" transform="translate(0 -20.16)" style="fill:#dd2b57"/><path id="Fill-5" d="M76.81,40.46H74.32V30.57h2.49Zm-11.56-3h5.88V33.55H65.25ZM19.12,55.86V33.55h7V46.24a1.6,1.6,0,0,0,1.6,1.59H53.5a1.59,1.59,0,0,0,1.59-1.59V33.55h7V55.86ZM29.28,44.65H51.9V33.55H29.28Zm-4.88-16a5.33,5.33,0,0,1,5.32-5.32H51.46a5.33,5.33,0,0,1,5.32,5.32v1.7H24.4ZM15.93,51,8.5,53.32V36l7.43,2.34ZM5.31,54l-2.12.12V35.24l2.12.13Zm73.1-26.59H72.73A1.6,1.6,0,0,0,71.13,29v1.38H60v-1.7a8.51,8.51,0,0,0-8.51-8.5H29.72a8.51,8.51,0,0,0-8.5,8.5v1.7H17.53a1.6,1.6,0,0,0-1.6,1.6V35L7.38,32.35A1.59,1.59,0,0,0,7,32.28H7L1.69,32a1.63,1.63,0,0,0-1.19.43A1.59,1.59,0,0,0,0,33.55V55.79A1.59,1.59,0,0,0,.5,57a1.61,1.61,0,0,0,1.09.44h.1L7,57.07H7A1.69,1.69,0,0,0,7.38,57l8.55-2.65v3.1A1.6,1.6,0,0,0,17.53,59H63.66a1.59,1.59,0,0,0,1.59-1.59V40.67h5.88v1.38a1.6,1.6,0,0,0,1.6,1.6h5.68A1.6,1.6,0,0,0,80,42.05V29a1.59,1.59,0,0,0-1.59-1.59Z" transform="translate(0 -20.16)" style="fill:#dd2b57"/></g></g></svg>