<svg id="Réteg_1" data-name="Réteg 1" xmlns="http://www.w3.org/2000/svg" viewBox="0 0 80 73.05"><title>camera-3</title><g id="Pink-Icon-_-Camera-3" data-name="Pink-Icon-/-Camera-3"><g id="icon"><path id="Fill-1" d="M22,50.88a1.76,1.76,0,1,0,1.75,1.75A1.75,1.75,0,0,0,22,50.88" transform="translate(0 -3.16)" style="fill:#dd2b57"/><path id="Fill-3" d="M27.79,50.88a1.76,1.76,0,1,0,1.76,1.75,1.75,1.75,0,0,0-1.76-1.75" transform="translate(0 -3.16)" style="fill:#dd2b57"/><path id="Fill-5" d="M22.48,22.51a.36.36,0,1,1,.36-.36.36.36,0,0,1-.36.36m0-3.9A3.55,3.55,0,1,0,26,22.15a3.55,3.55,0,0,0-3.55-3.54" transform="translate(0 -3.16)" style="fill:#dd2b57"/><path id="Fill-7" d="M22.48,13.94A1.49,1.49,0,1,1,24,12.45a1.49,1.49,0,0,1-1.49,1.49m0-6.16a4.68,4.68,0,1,0,4.68,4.67,4.68,4.68,0,0,0-4.68-4.67" transform="translate(0 -3.16)" style="fill:#dd2b57"/><path id="Fill-9" d="M14.66,19.62a1.45,1.45,0,0,1-.74.87,1.48,1.48,0,0,1-1.13.09,1.49,1.49,0,0,1-1-1.88,1.52,1.52,0,0,1,1.42-1,1.48,1.48,0,0,1,.46.08,1.49,1.49,0,0,1,.95,1.87M17.41,17a4.68,4.68,0,0,0-8.61.68,4.69,4.69,0,0,0,3,5.89,4.88,4.88,0,0,0,1.45.23A4.68,4.68,0,0,0,17.41,17" transform="translate(0 -3.16)" style="fill:#dd2b57"/><path id="Fill-11" d="M18,30.89a1.49,1.49,0,1,1-1.44-2.34l.24,0a1.53,1.53,0,0,1,.87.28A1.5,1.5,0,0,1,18,30.89m3.41-1.6A4.68,4.68,0,0,0,16,25.4a4.67,4.67,0,0,0-3.88,5.35,4.67,4.67,0,0,0,4.61,3.94,6.27,6.27,0,0,0,.74,0,4.67,4.67,0,0,0,3.88-5.35" transform="translate(0 -3.16)" style="fill:#dd2b57"/><path id="Fill-13" d="M29.66,30.25a1.48,1.48,0,0,1-2.67.64,1.48,1.48,0,0,1,.33-2.08,1.5,1.5,0,0,1,.87-.28l.23,0a1.49,1.49,0,0,1,1.24,1.7m2.31-3a4.66,4.66,0,0,0-3-1.87,4.67,4.67,0,0,0-4.51,7.37,4.66,4.66,0,0,0,3.05,1.87,6.13,6.13,0,0,0,.74,0A4.67,4.67,0,0,0,32,27.27" transform="translate(0 -3.16)" style="fill:#dd2b57"/><path id="Fill-15" d="M33,19.84a1.48,1.48,0,0,1-2,.65,1.49,1.49,0,0,1,.22-2.74,1.44,1.44,0,0,1,.46-.08,1.49,1.49,0,0,1,1.41,1A1.46,1.46,0,0,1,33,19.84m3.12-2.12a4.68,4.68,0,1,0-4.45,6.12,4.78,4.78,0,0,0,1.45-.23,4.68,4.68,0,0,0,3-5.89" transform="translate(0 -3.16)" style="fill:#dd2b57"/><path id="Fill-17" d="M57.24,22.51a.36.36,0,1,1,.36-.36.36.36,0,0,1-.36.36m0-3.9a3.55,3.55,0,1,0,3.54,3.54,3.55,3.55,0,0,0-3.54-3.54" transform="translate(0 -3.16)" style="fill:#dd2b57"/><path id="Fill-19" d="M57.24,13.94a1.49,1.49,0,1,1,1.49-1.49,1.49,1.49,0,0,1-1.49,1.49m0-6.16a4.68,4.68,0,1,0,4.67,4.67,4.68,4.68,0,0,0-4.67-4.67" transform="translate(0 -3.16)" style="fill:#dd2b57"/><path id="Fill-21" d="M49.42,19.62a1.48,1.48,0,0,1-1.87,1,1.49,1.49,0,0,1-1-1.88,1.46,1.46,0,0,1,.74-.86,1.49,1.49,0,0,1,2,.65,1.48,1.48,0,0,1,.09,1.13M52.17,17a4.67,4.67,0,1,0-5.61,6.57,4.83,4.83,0,0,0,1.45.23A4.68,4.68,0,0,0,52.17,17" transform="translate(0 -3.16)" style="fill:#dd2b57"/><path id="Fill-23" d="M52.74,30.89a1.5,1.5,0,0,1-1,.6,1.45,1.45,0,0,1-1.1-.27,1.49,1.49,0,0,1,.87-2.69,1.48,1.48,0,0,1,1.21,2.36m1.54-4.65a4.61,4.61,0,0,0-3.48-.84,4.67,4.67,0,0,0,.72,9.29,6,6,0,0,0,.74,0,4.68,4.68,0,0,0,2-8.4" transform="translate(0 -3.16)" style="fill:#dd2b57"/><path id="Fill-25" d="M63.82,31.22a1.46,1.46,0,0,1-1.11.27,1.5,1.5,0,0,1-1-.6,1.51,1.51,0,0,1,.33-2.08,1.51,1.51,0,0,1,1.11-.26,1.46,1.46,0,0,1,1,.59,1.49,1.49,0,0,1-.33,2.08m2.91-3.95a4.66,4.66,0,0,0-3.05-1.87,4.68,4.68,0,0,0-5.35,3.89,4.66,4.66,0,0,0,3.89,5.35,6,6,0,0,0,.74,0,4.57,4.57,0,0,0,2.73-.89,4.68,4.68,0,0,0,1-6.53" transform="translate(0 -3.16)" style="fill:#dd2b57"/><path id="Fill-27" d="M66.93,20.58a1.49,1.49,0,0,1-1.78-2.09,1.46,1.46,0,0,1,.86-.74,1.55,1.55,0,0,1,.47-.08,1.45,1.45,0,0,1,.67.17,1.46,1.46,0,0,1,.74.86,1.5,1.5,0,0,1-1,1.88m4-2.86A4.67,4.67,0,1,0,62,20.61a4.69,4.69,0,0,0,4.45,3.23,4.86,4.86,0,0,0,1.44-.23,4.68,4.68,0,0,0,3-5.89" transform="translate(0 -3.16)" style="fill:#dd2b57"/><path id="Fill-29" d="M76.81,57.05H74V45.8h2.79V57.05Zm-10-3.47h4V49.27h-4ZM63.6,72.94H18.2V49.27H63.6V72.94ZM28,40.33A19.09,19.09,0,0,0,39.86,29.82a19.11,19.11,0,0,0,9.79,9.74l-6.26,6.26a1.71,1.71,0,0,0-.21.26H33.65a2,2,0,0,0-.3-.42ZM22.48,38A15.81,15.81,0,1,1,38.27,21.25q0,.45,0,.9c0,.31,0,.61,0,.91A15.83,15.83,0,0,1,22.48,38Zm19-16.71a15.81,15.81,0,1,1,0,1.81c0-.3,0-.6,0-.91s0-.6,0-.9ZM15,69.28,3.19,72.52V49.63L15,52.93Zm63.4-26.67h-6a1.6,1.6,0,0,0-1.6,1.6v1.87H47.63L53,40.68a18.77,18.77,0,0,0,4.2.47A19,19,0,1,0,39.86,14.49,19,19,0,1,0,22.48,41.15c.6,0,1.19,0,1.77-.08l5,5H16.6A1.6,1.6,0,0,0,15,47.68v1.94L2,46a1.61,1.61,0,0,0-1.39.27A1.58,1.58,0,0,0,0,47.53V74.61a1.58,1.58,0,0,0,.63,1.27,1.61,1.61,0,0,0,1,.32,1.47,1.47,0,0,0,.42,0l13-3.56v1.94a1.59,1.59,0,0,0,1.59,1.59H65.2a1.59,1.59,0,0,0,1.59-1.59V56.77h4v1.87a1.6,1.6,0,0,0,1.59,1.6h6A1.6,1.6,0,0,0,80,58.64V44.21a1.6,1.6,0,0,0-1.59-1.6Z" transform="translate(0 -3.16)" style="fill:#dd2b57"/></g></g></svg>