<svg id="Réteg_1" data-name="Réteg 1" xmlns="http://www.w3.org/2000/svg" viewBox="0 0 80 72.08"><title>chat</title><g id="Pink-Icon-_-Chat" data-name="Pink-Icon-/-Chat"><g id="icon"><path id="Fill-1" d="M8.79,38.34a1.61,1.61,0,0,0-1.2.54l-4.4,5.06V12.41A5.07,5.07,0,0,1,8.25,7.35H46.38a5.07,5.07,0,0,1,5.07,5.06V33.27a5.08,5.08,0,0,1-5.07,5.07Zm45.84-5.07V12.41a8.26,8.26,0,0,0-8.25-8.25H8.25A8.26,8.26,0,0,0,0,12.41V48.2a1.6,1.6,0,0,0,1,1.5,1.78,1.78,0,0,0,.55.1,1.62,1.62,0,0,0,1.21-.55l6.71-7.73H46.38a8.26,8.26,0,0,0,8.25-8.25Z" transform="translate(0 -4.16)" style="fill:#dd2b57"/><path id="Fill-4" d="M44.94,28.8H9.69a1.6,1.6,0,1,0,0,3.19H44.94a1.6,1.6,0,1,0,0-3.19" transform="translate(0 -4.16)" style="fill:#dd2b57"/><path id="Fill-6" d="M9.69,24.44H44.94a1.6,1.6,0,1,0,0-3.19H9.69a1.6,1.6,0,1,0,0,3.19" transform="translate(0 -4.16)" style="fill:#dd2b57"/><path id="Fill-8" d="M39.19,16.88h5.75a1.6,1.6,0,1,0,0-3.19H39.19a1.6,1.6,0,1,0,0,3.19" transform="translate(0 -4.16)" style="fill:#dd2b57"/><path id="Fill-10" d="M9.69,16.88H32.35a1.6,1.6,0,1,0,0-3.19H9.69a1.6,1.6,0,1,0,0,3.19" transform="translate(0 -4.16)" style="fill:#dd2b57"/><path id="Fill-12" d="M76.81,70.39l-2-2.32a1.61,1.61,0,0,0-1.2-.54h-31a2.86,2.86,0,0,1-2.85-2.86V52.16a2.86,2.86,0,0,1,2.85-2.85H74a2.86,2.86,0,0,1,2.85,2.85ZM74,46.12H42.55a6,6,0,0,0-6,6V64.67a6,6,0,0,0,6,6H72.87l4.33,5a1.58,1.58,0,0,0,1.21.55,1.52,1.52,0,0,0,.55-.1,1.59,1.59,0,0,0,1-1.49V52.16a6,6,0,0,0-6-6Z" transform="translate(0 -4.16)" style="fill:#dd2b57"/><path id="Fill-14" d="M71.74,60.32h-27a1.6,1.6,0,0,0,0,3.19h27a1.6,1.6,0,0,0,0-3.19" transform="translate(0 -4.16)" style="fill:#dd2b57"/><path id="Fill-16" d="M44.77,57.35h3.44a1.59,1.59,0,0,0,0-3.18H44.77a1.59,1.59,0,0,0,0,3.18" transform="translate(0 -4.16)" style="fill:#dd2b57"/><path id="Fill-18" d="M71.74,54.17H54.56a1.59,1.59,0,1,0,0,3.18H71.74a1.59,1.59,0,1,0,0-3.18" transform="translate(0 -4.16)" style="fill:#dd2b57"/></g></g></svg>