<svg id="Réteg_1" data-name="Réteg 1" xmlns="http://www.w3.org/2000/svg" viewBox="0 0 80 80"><title>diagram</title><g id="Pink-Icon-_-Diagram" data-name="Pink-Icon-/-Diagram"><g id="icon"><path id="Fill-1" d="M44.57,31.87l7.78,7.79a1.6,1.6,0,0,0,1.11.46h11a11.12,11.12,0,1,1-19.9-8.25Zm7.33,2.91-5.12-5.12a11.12,11.12,0,0,1,5.12-2.12ZM55,24.93A13.74,13.74,0,0,1,67.09,37H55ZM53.46,52.81A14.29,14.29,0,0,0,67.63,40.12h1.11a1.56,1.56,0,0,0,1.56-1.57A16.87,16.87,0,0,0,53.46,21.71a1.56,1.56,0,0,0-1.56,1.57v1.11a14.25,14.25,0,0,0,1.56,28.42Z" style="fill:#dd2b57"/><path id="Fill-3" d="M37.18,29.07h-10a1.56,1.56,0,0,0,0,3.12h10a1.56,1.56,0,1,0,0-3.12" style="fill:#dd2b57"/><path id="Fill-5" d="M19.23,24.69h18a1.56,1.56,0,1,0,0-3.12H19.23a1.56,1.56,0,1,0,0,3.12" style="fill:#dd2b57"/><path id="Fill-7" d="M13,24.69a1.55,1.55,0,1,0-1.1-.45,1.56,1.56,0,0,0,1.1.45" style="fill:#dd2b57"/><path id="Fill-9" d="M12.83,35.82H17.2V49.68H12.83ZM24.7,40v9.71H20.33V40Zm3.13,9.71H32.2V45.14H27.83ZM11.26,52.81h22.5a1.57,1.57,0,0,0,1.57-1.57V43.58A1.56,1.56,0,0,0,33.76,42H27.83V38.41a1.57,1.57,0,0,0-1.57-1.57H20.33V34.25a1.56,1.56,0,0,0-1.57-1.56h-7.5A1.56,1.56,0,0,0,9.7,34.25v17a1.56,1.56,0,0,0,1.56,1.57Z" style="fill:#dd2b57"/><path id="Fill-11" d="M75.31,60.94a1.56,1.56,0,0,1-1.56,1.56H6.25a1.56,1.56,0,0,1-1.56-1.56V11.88H75.31ZM3.12,8.75H76.88V3.12H3.12ZM40,76.88a2.19,2.19,0,1,1,2.19-2.19A2.2,2.2,0,0,1,40,76.88ZM78.44,0H1.56A1.56,1.56,0,0,0,0,1.56v8.75a1.56,1.56,0,0,0,1.56,1.57V60.94a4.69,4.69,0,0,0,4.69,4.68H38.44v4a5.31,5.31,0,1,0,3.12,0v-4H73.75a4.69,4.69,0,0,0,4.69-4.68V11.88A1.56,1.56,0,0,0,80,10.31V1.56A1.56,1.56,0,0,0,78.44,0Z" style="fill:#dd2b57"/></g></g></svg>