<svg id="Réteg_1" data-name="Réteg 1" xmlns="http://www.w3.org/2000/svg" viewBox="0 0 80 73.65"><title>dream</title><g id="Pink-Icon-_-Dream" data-name="Pink-Icon-/-Dream"><g id="icon"><path id="Fill-1" d="M74.88,52.8l-8.66,6.65h-12v-11a5.52,5.52,0,0,1,1.59-3.88L64.31,36a2.73,2.73,0,0,1,1.94-.81,2.7,2.7,0,0,1,1.71.6l.07,0,.18.16h0a2.77,2.77,0,0,1,0,3.9l-5.67,5.66a1.65,1.65,0,0,0-.27.38,1.56,1.56,0,0,0,2.48,1.83l5.67-5.66.2-.22.08-.08.12-.15.08-.1.1-.13.08-.11.09-.13.06-.1.09-.15.06-.1a1.09,1.09,0,0,0,.08-.15l0-.09.08-.17,0-.07.09-.19a.14.14,0,0,1,0-.06,1.8,1.8,0,0,1,.08-.21v0c0-.08,0-.16.07-.24h0a5.91,5.91,0,0,0-1.08-5.38l0,0L70.64,34l-.08-.08-.11-.12V16a3.21,3.21,0,0,1,3.2-3.2h0a3.2,3.2,0,0,1,3.2,3.2V48.75h0a5.15,5.15,0,0,1-2,4ZM54.19,73.52H69V68.38H54.19Zm0-8.26H69V62.57H54.19ZM73.67,9.67h0A6.34,6.34,0,0,0,67.33,16V32.11A6.38,6.38,0,0,0,66.25,32a5.83,5.83,0,0,0-4.16,1.73l-8.53,8.67a8.57,8.57,0,0,0-2.49,6.07v26.6a1.56,1.56,0,0,0,1.56,1.56h18a1.56,1.56,0,0,0,1.56-1.56V66.82a1.54,1.54,0,0,0-.06-.43V61a1.56,1.56,0,0,0-.92-1.42l5.61-4.31A8.28,8.28,0,0,0,80,48.75V16a6.34,6.34,0,0,0-6.33-6.33Z" transform="translate(0 -3)" style="fill:#dd2b57"/><path id="Fill-3" d="M61.59,49.92a1.4,1.4,0,0,0-.09-.29,1.15,1.15,0,0,0-.14-.27,1.55,1.55,0,0,0-.19-.24,2,2,0,0,0-.24-.19,1.82,1.82,0,0,0-.27-.15,1.54,1.54,0,0,0-1.2,0,1.82,1.82,0,0,0-.27.15,2,2,0,0,0-.24.19,1.57,1.57,0,0,0-.45,1.11,1.53,1.53,0,0,0,0,.3,1.4,1.4,0,0,0,.09.29,1.15,1.15,0,0,0,.14.27,1.55,1.55,0,0,0,.19.24l.24.2.27.14a1.61,1.61,0,0,0,.29.09l.31,0,.31,0a1.61,1.61,0,0,0,.29-.09l.27-.14.24-.2a1.55,1.55,0,0,0,.19-.24,1.15,1.15,0,0,0,.14-.27,1.4,1.4,0,0,0,.09-.29,1.53,1.53,0,0,0,0-.3,1.55,1.55,0,0,0,0-.31" transform="translate(0 -3)" style="fill:#dd2b57"/><path id="Fill-5" d="M25.81,59.45h-12L5.12,52.8a5.14,5.14,0,0,1-2-4V16a3.2,3.2,0,0,1,3.2-3.2h0A3.21,3.21,0,0,1,9.55,16V33.78l-.09.09-.1.11-.09.11a.52.52,0,0,0-.1.11l-.09.11L9,34.43l-.08.11-.08.12-.08.12-.07.12L8.6,35l-.06.12-.07.14-.06.12-.06.13-.06.13s0,.09,0,.14l-.05.12s0,.1,0,.15,0,.08,0,.12l0,.16,0,.12a.94.94,0,0,0,0,.16l0,.12a.88.88,0,0,0,0,.16.5.5,0,0,0,0,.12l0,.18s0,.07,0,.11a1.34,1.34,0,0,0,0,.2.28.28,0,0,0,0,.09,2.81,2.81,0,0,0,0,.29,5.85,5.85,0,0,0,1.72,4.16l5.67,5.66a.43.43,0,0,0,.12.11,1.55,1.55,0,0,0,1,.35,1.71,1.71,0,0,0,.59-.11,1.76,1.76,0,0,0,.52-.35,1.56,1.56,0,0,0,0-2.21l-5.67-5.66a2.76,2.76,0,0,1,0-3.9h0c0-.06.11-.1.16-.15l.08-.07a2.76,2.76,0,0,1,3.65.21l8.53,8.67a5.52,5.52,0,0,1,1.59,3.88ZM11,65.26H25.81V62.57H11ZM11,73.52H25.81V68.38H11Zm15.47-31.1L17.9,33.74A5.82,5.82,0,0,0,13.75,32a6.38,6.38,0,0,0-1.08.09V16A6.32,6.32,0,0,0,6.35,9.68h0A6.33,6.33,0,0,0,0,16V48.75a8.28,8.28,0,0,0,3.22,6.53l5.61,4.31A1.56,1.56,0,0,0,7.91,61v5.38a1.54,1.54,0,0,0-.06.43v8.27a1.56,1.56,0,0,0,1.56,1.56h18a1.56,1.56,0,0,0,1.56-1.56V48.49a8.61,8.61,0,0,0-2.48-6.07Z" transform="translate(0 -3)" style="fill:#dd2b57"/><path id="Fill-7" d="M21.05,49.12a2,2,0,0,0-.24-.19,1.82,1.82,0,0,0-.27-.15,1.54,1.54,0,0,0-1.2,0,1.82,1.82,0,0,0-.27.15,2,2,0,0,0-.24.19,1.55,1.55,0,0,0-.19.24,1.15,1.15,0,0,0-.14.27,1.4,1.4,0,0,0-.09.29,1.55,1.55,0,0,0,0,.31,1.53,1.53,0,0,0,0,.3,1.4,1.4,0,0,0,.09.29,1.15,1.15,0,0,0,.14.27,1.55,1.55,0,0,0,.19.24l.24.2.27.14a1.61,1.61,0,0,0,.29.09l.31,0a1.51,1.51,0,0,0,.6-.12l.27-.14.24-.2a1.55,1.55,0,0,0,.19-.24,1.15,1.15,0,0,0,.14-.27,1.4,1.4,0,0,0,.09-.29,1.53,1.53,0,0,0,0-.3,1.57,1.57,0,0,0-.45-1.11" transform="translate(0 -3)" style="fill:#dd2b57"/><path id="Fill-9" d="M60.5,15.05a1.7,1.7,0,0,0-1.58,1v0A1.68,1.68,0,0,0,59.29,18l.4.39A2.33,2.33,0,0,1,60.36,20a2.29,2.29,0,0,1-.67,1.63,2.26,2.26,0,0,1-3.19,0l-1-1a7.52,7.52,0,0,0-4.25-2.13A1.56,1.56,0,0,0,50,21.17l.27.27a4.67,4.67,0,0,1,1.38,3.33v1.39a1.72,1.72,0,0,0,1.71,1.71.31.31,0,0,1,.29.2.3.3,0,0,1-.06.34L52.2,29.77a17.46,17.46,0,0,0-2.65,3.4l-1.19,2,0,0-1.5,2.48a5.21,5.21,0,0,0-.53,1.24c-.85.57-1.72,1.15-2.63,1.73a1.89,1.89,0,0,1-.46-1.25A4.82,4.82,0,0,0,41.8,36l-.56-.56a5.31,5.31,0,0,1-1.56-3.76V28.06a2.4,2.4,0,0,0-2.39-2.4h-.42A2.69,2.69,0,0,1,34.17,23V21.11A2.85,2.85,0,0,1,37,18.27H47a1.56,1.56,0,0,0,1.56-1.57v-.1A7.83,7.83,0,0,0,46.24,11a1.59,1.59,0,0,0-.82-.43L42.14,10c1.16-1.7,3.54-3.86,8.12-3.86,4.88,0,10,2.77,11.28,8.92Zm0,9.84-.15.32a2.56,2.56,0,0,1-.11.24c-.05.11-.1.22-.16.33L60,26l-.2.37-.1.19c-.1.19-.21.38-.32.56l-.22.35-.07.11-.18.26-.07.11-.25.35v0l-.29.37-.09.11-.22.28-.1.12-.3.35,0,0-.35.39-.11.12-.27.29-.12.13c-.12.11-.23.23-.35.35l0,.06-.42.41-.12.12c-.11.1-.22.2-.32.31l-.15.13-.38.36-.08.07-.48.43-.14.13-.37.31-.16.15-.43.36-.1.09-.54.44,0,0A14.4,14.4,0,0,1,54.41,32l1.35-1.35a3.44,3.44,0,0,0-1-5.57v-.28a5.15,5.15,0,0,0,0-.56,5.42,5.42,0,0,0,5.81.62l0,.06ZM40.57,42.59,40,43l-.59-.37-.23-.14,0,0L39,42.3l-.14-.08-.11-.07-.15-.1L38.44,42l-.15-.09-.12-.08-.16-.1-.12-.08-.17-.1-.12-.08-.18-.11-.13-.08-.18-.12L37,41.05l-.18-.11-.13-.09-.2-.13-.08,0-.45-.29-.13-.09-.19-.12-.17-.11-.19-.13-.16-.11-.2-.12-.17-.12-.19-.13-.19-.12-.19-.13L34,39.07l-.19-.13-.19-.13-.19-.13-.2-.14L33,38.41l-.21-.15-.19-.12a1.88,1.88,0,0,0-.23-.16l-.16-.12-.37-.26-.11-.08-.32-.23-.15-.1A2.48,2.48,0,0,0,31,37l-.16-.12-.24-.18-.17-.13-.24-.17L30,36.27l-.24-.18L29.61,36l-.24-.18-.17-.13L29,35.47l-.16-.13-.08-.06a10,10,0,0,0,1.32-5V28.1A8.58,8.58,0,0,0,27.51,22l0,0a6.5,6.5,0,0,0-4.63-1.92.87.87,0,0,1-.6-.24L21.2,18.75a8.58,8.58,0,0,0-3-1.94c0-.06,0-.12,0-.17l0-.33c0-.12,0-.24,0-.37s0-.21,0-.31l.06-.35.06-.3c0-.12.05-.23.07-.34s.05-.2.07-.29L18.7,14l.09-.28c0-.11.07-.21.1-.31s.06-.18.1-.27.08-.2.12-.3a2.77,2.77,0,0,1,.1-.26c0-.1.09-.19.14-.29a2.56,2.56,0,0,1,.11-.24l.15-.29.12-.22a2.82,2.82,0,0,1,.18-.29,1.18,1.18,0,0,1,.11-.19l.23-.35a.44.44,0,0,0,.08-.11c.11-.15.22-.3.34-.44l.11-.14L21,9.77l.15-.16a2.39,2.39,0,0,1,.22-.23,1.29,1.29,0,0,1,.17-.16L21.78,9,22,8.85l.22-.18a1.25,1.25,0,0,1,.19-.15l.23-.18.2-.14L23,8l.21-.13.24-.14.21-.13.25-.13a1.51,1.51,0,0,1,.22-.11l.25-.12.22-.11.25-.1.23-.1.26-.09.23-.09.27-.08.23-.07.28-.08.23-.06.28-.06.23-.05.29-.06.23,0,.29,0,.23,0,.31,0,.21,0,.35,0h1.16a7.91,7.91,0,0,0-1.33,4.4v1.64A3.82,3.82,0,0,0,32.67,16H34a6,6,0,0,0-2.91,5.12V23a5.82,5.82,0,0,0,5.51,5.81v2.85a8.39,8.39,0,0,0,2.47,6l.56.55a1.74,1.74,0,0,1,.5,1.22A5,5,0,0,0,41,42.3l-.46.29ZM26.91,30.27a7.06,7.06,0,0,1-.66,3,26.63,26.63,0,0,1-5.59-6.13,16.57,16.57,0,0,1-2.36-6.75A6.24,6.24,0,0,1,19,21L20.05,22a4,4,0,0,0,2.81,1.15,3.41,3.41,0,0,1,2.42,1l0,0a5.46,5.46,0,0,1,1.61,3.89ZM32,10.53a4.71,4.71,0,0,1,1.4-3.38l.35-.36a8.37,8.37,0,0,1,3.4,2.32,1.52,1.52,0,0,0-1,.45,2.61,2.61,0,0,0-.78,1.87,1.43,1.43,0,0,1-1.43,1.43H32.67a.69.69,0,0,1-.68-.69Zm12.35,3.05a4.78,4.78,0,0,1,.86,1.56H37l-.51,0a4.59,4.59,0,0,0,1.83-2.7Zm20.55,2.91h0a14.34,14.34,0,0,0-4.84-10A15,15,0,0,0,50.26,3C44.78,3,41.67,5.46,40,7.65a11.59,11.59,0,0,0-6.37-4.17A15.16,15.16,0,0,0,29.73,3,14.78,14.78,0,0,0,19.5,6.88c-.27.25-.53.52-.78.79A15.12,15.12,0,0,0,15,18h0V18A20,20,0,0,0,18,28.73a33.53,33.53,0,0,0,7.66,8.09,122.45,122.45,0,0,0,12.11,8.41l.91.57a2.46,2.46,0,0,0,1.34.39,2.56,2.56,0,0,0,1.33-.38l.9-.57.24-.15.37-.23.21-.13,1.42-.89h0c1.44-.91,2.83-1.82,4.13-2.72C55.42,36.42,60,32.25,62,28.73A20,20,0,0,0,65,18a15.31,15.31,0,0,0-.07-1.54Z" transform="translate(0 -3)" style="fill:#dd2b57"/><path id="Fill-11" d="M74.88,52.8l-8.66,6.64h-12V48.49a5.52,5.52,0,0,1,1.59-3.88L64.31,36a2.73,2.73,0,0,1,1.94-.81,2.7,2.7,0,0,1,1.71.6l.07,0,.18.16h0a2.77,2.77,0,0,1,0,3.9l-5.67,5.66a1.65,1.65,0,0,0-.27.38,1.56,1.56,0,0,0,2.48,1.83l5.67-5.66.2-.22.08-.08.12-.15.08-.1.1-.13.08-.11.09-.13.06-.1.09-.15.06-.1a1.09,1.09,0,0,0,.08-.15.36.36,0,0,0,0-.09l.09-.17,0-.07.09-.19a.14.14,0,0,1,0-.06,1.8,1.8,0,0,1,.08-.21v0c0-.08,0-.16.07-.24h0a5.91,5.91,0,0,0-1.08-5.38l0,0L70.64,34l-.08-.08-.11-.12V16a3.21,3.21,0,0,1,3.2-3.2h0a3.2,3.2,0,0,1,3.2,3.2V48.75h0a5.15,5.15,0,0,1-2,4ZM54.19,73.52H69V68.38H54.19Zm0-8.26H69V62.57H54.19ZM73.67,9.67h0A6.34,6.34,0,0,0,67.33,16V32.11A6.38,6.38,0,0,0,66.25,32a5.83,5.83,0,0,0-4.16,1.73l-8.53,8.67a8.57,8.57,0,0,0-2.49,6.07v26.6a1.56,1.56,0,0,0,1.56,1.56h18a1.56,1.56,0,0,0,1.56-1.56V66.82a1.54,1.54,0,0,0-.06-.43V61a1.56,1.56,0,0,0-.92-1.42l5.61-4.31A8.28,8.28,0,0,0,80,48.75V16a6.34,6.34,0,0,0-6.33-6.33Z" transform="translate(0 -3)" style="fill:#dd2b57"/><path id="Fill-13" d="M61.59,49.92a1.4,1.4,0,0,0-.09-.29,1.15,1.15,0,0,0-.14-.27,1.55,1.55,0,0,0-.19-.24,2,2,0,0,0-.24-.19,1.82,1.82,0,0,0-.27-.15,1.54,1.54,0,0,0-1.2,0,1.82,1.82,0,0,0-.27.15,2,2,0,0,0-.24.19,1.57,1.57,0,0,0-.45,1.11,1.53,1.53,0,0,0,0,.3,1.4,1.4,0,0,0,.09.29,1.15,1.15,0,0,0,.14.27,1.55,1.55,0,0,0,.19.24,2,2,0,0,0,.24.19,1.82,1.82,0,0,0,.27.15,1.61,1.61,0,0,0,.29.09l.31,0,.31,0a1.61,1.61,0,0,0,.29-.09,1.82,1.82,0,0,0,.27-.15,2,2,0,0,0,.24-.19,1.55,1.55,0,0,0,.19-.24,1.15,1.15,0,0,0,.14-.27,1.4,1.4,0,0,0,.09-.29,1.53,1.53,0,0,0,0-.3,1.55,1.55,0,0,0,0-.31" transform="translate(0 -3)" style="fill:#dd2b57"/><path id="Fill-15" d="M25.81,59.45h-12L5.12,52.8a5.14,5.14,0,0,1-2-4V16a3.2,3.2,0,0,1,3.2-3.2h0A3.21,3.21,0,0,1,9.55,16V33.78l-.09.09-.1.11-.09.1-.1.12-.09.11L9,34.43a1,1,0,0,0-.08.11l-.08.12-.08.12-.07.12L8.6,35l-.06.12-.07.14-.06.12-.06.13-.06.13s0,.09,0,.14l-.05.12s0,.1,0,.15,0,.08,0,.12l0,.16,0,.12a.94.94,0,0,0,0,.16l0,.12a.88.88,0,0,0,0,.16l0,.12a1.1,1.1,0,0,1,0,.18s0,.07,0,.11,0,.13,0,.2v.09a2.81,2.81,0,0,0,0,.29,5.85,5.85,0,0,0,1.72,4.16l5.67,5.66a.43.43,0,0,0,.12.11,1.55,1.55,0,0,0,1,.35,1.71,1.71,0,0,0,.59-.11,1.76,1.76,0,0,0,.52-.35,1.56,1.56,0,0,0,0-2.21l-5.67-5.66a2.76,2.76,0,0,1,0-3.9h0c0-.06.11-.1.16-.15l.08-.07a2.76,2.76,0,0,1,3.65.21l8.53,8.67a5.52,5.52,0,0,1,1.59,3.88ZM11,65.26H25.81V62.57H11ZM11,73.52H25.81V68.38H11Zm15.47-31.1L17.9,33.74A5.82,5.82,0,0,0,13.75,32a6.38,6.38,0,0,0-1.08.09V16A6.33,6.33,0,0,0,6.35,9.67h0A6.34,6.34,0,0,0,0,16V48.75a8.28,8.28,0,0,0,3.22,6.53l5.61,4.31A1.56,1.56,0,0,0,7.91,61v5.38a1.54,1.54,0,0,0-.06.43v8.27a1.56,1.56,0,0,0,1.56,1.56h18a1.56,1.56,0,0,0,1.56-1.56V48.49a8.61,8.61,0,0,0-2.48-6.07Z" transform="translate(0 -3)" style="fill:#dd2b57"/><path id="Fill-17" d="M21.05,49.12a2,2,0,0,0-.24-.19,1.82,1.82,0,0,0-.27-.15,1.54,1.54,0,0,0-1.2,0,1.82,1.82,0,0,0-.27.15,2,2,0,0,0-.24.19,1.55,1.55,0,0,0-.19.24,1.15,1.15,0,0,0-.14.27,1.4,1.4,0,0,0-.09.29,1.55,1.55,0,0,0,0,.31,1.53,1.53,0,0,0,0,.3,1.4,1.4,0,0,0,.09.29,1.15,1.15,0,0,0,.14.27,1.55,1.55,0,0,0,.19.24,2,2,0,0,0,.24.19l.27.15a1.61,1.61,0,0,0,.29.09l.31,0a1.51,1.51,0,0,0,.6-.12l.27-.15a2,2,0,0,0,.24-.19,1.55,1.55,0,0,0,.19-.24,1.15,1.15,0,0,0,.14-.27,1.4,1.4,0,0,0,.09-.29,1.53,1.53,0,0,0,0-.3,1.57,1.57,0,0,0-.45-1.11" transform="translate(0 -3)" style="fill:#dd2b57"/><path id="Fill-19" d="M60.5,15.05a1.7,1.7,0,0,0-1.58,1v0A1.68,1.68,0,0,0,59.29,18l.4.39A2.33,2.33,0,0,1,60.36,20a2.29,2.29,0,0,1-.67,1.63,2.26,2.26,0,0,1-3.19,0l-1-1a7.52,7.52,0,0,0-4.25-2.13A1.56,1.56,0,0,0,50,21.17l.27.27a4.67,4.67,0,0,1,1.38,3.33v1.39a1.72,1.72,0,0,0,1.71,1.71.31.31,0,0,1,.29.2.3.3,0,0,1-.06.34L52.2,29.77a17.46,17.46,0,0,0-2.65,3.4l-1.19,2,0,0-1.5,2.48a5,5,0,0,0-.53,1.24c-.85.57-1.72,1.15-2.63,1.73a1.89,1.89,0,0,1-.46-1.25,4.86,4.86,0,0,0-1.42-3.43l-.56-.55a5.31,5.31,0,0,1-1.56-3.76V28.06a2.4,2.4,0,0,0-2.39-2.4h-.42A2.69,2.69,0,0,1,34.17,23V21.11A2.85,2.85,0,0,1,37,18.27H47a1.56,1.56,0,0,0,1.56-1.57v-.1A7.83,7.83,0,0,0,46.24,11a1.59,1.59,0,0,0-.82-.43L42.14,10c1.16-1.7,3.54-3.86,8.12-3.86,4.88,0,10,2.77,11.28,8.92Zm0,9.84-.15.32a2.56,2.56,0,0,1-.11.24c-.05.11-.1.22-.16.33L60,26l-.2.37c0,.06-.07.12-.1.19s-.21.38-.32.56l-.22.35-.07.11-.18.26-.07.11-.25.35v0l-.29.37-.09.11-.22.28-.1.12-.3.35,0,0-.35.39-.11.12-.27.29-.12.13c-.12.11-.23.23-.35.35l0,.06-.42.41-.12.12c-.11.1-.22.2-.32.31l-.15.13-.38.36-.08.07-.48.43-.14.13-.37.31-.16.15-.43.36-.1.09-.54.44,0,0A14.4,14.4,0,0,1,54.41,32l1.35-1.35a3.44,3.44,0,0,0-1-5.57v-.28a5.15,5.15,0,0,0,0-.56,5.42,5.42,0,0,0,5.81.62l0,.06ZM40.57,42.59,40,43l-.59-.37-.23-.14,0,0L39,42.3l-.14-.08-.11-.07-.15-.1L38.44,42l-.15-.09-.12-.08-.16-.1-.12-.08-.17-.1-.12-.08-.18-.11-.13-.08-.18-.12L37,41.05l-.18-.11-.13-.09-.2-.13-.08,0-.45-.29-.13-.09-.19-.12-.17-.11-.19-.13-.16-.11-.2-.12-.17-.12-.19-.13-.19-.12-.19-.13L34,39.07l-.19-.13-.19-.13-.19-.13-.2-.14L33,38.41l-.21-.15-.19-.12a1.88,1.88,0,0,0-.23-.16l-.16-.12-.37-.26-.11-.08-.32-.23-.15-.1A2.48,2.48,0,0,0,31,37l-.16-.12-.24-.18-.17-.13-.24-.17L30,36.27l-.24-.18L29.61,36l-.24-.18-.17-.13L29,35.47l-.16-.13-.08-.06a10.11,10.11,0,0,0,1.32-5V28.1A8.58,8.58,0,0,0,27.51,22l0,0a6.5,6.5,0,0,0-4.63-1.92.87.87,0,0,1-.6-.24L21.2,18.75a8.44,8.44,0,0,0-3-1.94.91.91,0,0,1,0-.17l0-.33c0-.12,0-.24,0-.37s0-.21,0-.31l.06-.35.06-.3c0-.12.05-.23.07-.34s.05-.2.07-.29L18.7,14l.09-.28c0-.11.07-.21.1-.31s.06-.18.1-.27.08-.2.12-.3a2.77,2.77,0,0,1,.1-.26c0-.1.09-.19.14-.29a2.56,2.56,0,0,1,.11-.24l.15-.29.12-.22a2.82,2.82,0,0,1,.18-.29,1.18,1.18,0,0,1,.11-.19l.23-.35a.44.44,0,0,0,.08-.11l.33-.44.12-.14L21,9.77l.15-.16a2.39,2.39,0,0,1,.22-.23,1.29,1.29,0,0,1,.17-.16L21.78,9,22,8.85l.22-.19.19-.14.23-.18.2-.14L23,8l.21-.13.24-.15.21-.12.25-.13a1.51,1.51,0,0,1,.22-.11l.25-.12.22-.11.25-.11L25.11,7l.26-.09.23-.09.27-.08.23-.07.28-.08.23-.06.28-.06.23-.05.29-.06.23,0,.29,0,.23,0,.31,0,.21,0,.35,0h1.16a7.91,7.91,0,0,0-1.33,4.4v1.64A3.82,3.82,0,0,0,32.67,16H34a6,6,0,0,0-2.91,5.12V23a5.82,5.82,0,0,0,5.51,5.81v2.85a8.41,8.41,0,0,0,2.47,6l.56.55a1.74,1.74,0,0,1,.5,1.22A5,5,0,0,0,41,42.3l-.46.29ZM26.91,30.27a7.06,7.06,0,0,1-.66,3,26.63,26.63,0,0,1-5.59-6.13,16.57,16.57,0,0,1-2.36-6.75A6.24,6.24,0,0,1,19,21L20.05,22a4,4,0,0,0,2.81,1.15,3.41,3.41,0,0,1,2.42,1l0,0a5.46,5.46,0,0,1,1.61,3.89ZM32,10.53a4.71,4.71,0,0,1,1.4-3.38l.35-.36a8.37,8.37,0,0,1,3.4,2.32,1.55,1.55,0,0,0-1,.44,2.65,2.65,0,0,0-.78,1.88,1.43,1.43,0,0,1-1.43,1.43H32.67a.69.69,0,0,1-.68-.69Zm12.35,3.05a4.78,4.78,0,0,1,.86,1.56H37l-.51,0a4.59,4.59,0,0,0,1.83-2.7Zm20.55,2.9h0a14.34,14.34,0,0,0-4.84-10A15,15,0,0,0,50.26,3C44.78,3,41.67,5.46,40,7.65a11.63,11.63,0,0,0-6.37-4.17A15.16,15.16,0,0,0,29.73,3,14.78,14.78,0,0,0,19.5,6.88c-.27.25-.53.52-.78.79A15.12,15.12,0,0,0,15,18h0V18A20,20,0,0,0,18,28.73a33.33,33.33,0,0,0,7.66,8.09,122.45,122.45,0,0,0,12.11,8.41l.91.57a2.46,2.46,0,0,0,1.34.39,2.56,2.56,0,0,0,1.33-.38l.9-.57.24-.15.37-.23.21-.13,1.42-.89h0c1.44-.91,2.83-1.82,4.13-2.72C55.42,36.42,60,32.25,62,28.73A19.88,19.88,0,0,0,65,18c0-.53,0-1.05-.07-1.55Z" transform="translate(0 -3)" style="fill:#dd2b57"/></g></g></svg>