<svg id="Réteg_1" data-name="Réteg 1" xmlns="http://www.w3.org/2000/svg" viewBox="0 0 79.97 79.8"><title>edit-2</title><g id="Pink-Icon-_-Edit-2" data-name="Pink-Icon-/-Edit-2"><g id="icon"><path id="Fill-1" d="M37.81,71.79A24.44,24.44,0,0,1,33.27,67a1.56,1.56,0,1,0-2.53,1.82,27.54,27.54,0,0,0,5.12,5.39,1.58,1.58,0,0,0,1,.34,1.56,1.56,0,0,0,1-2.78" transform="translate(0 -0.16)" style="fill:#dd2b57"/><path id="Fill-3" d="M64.84,32.12a24.15,24.15,0,0,1,5.19,4,1.55,1.55,0,0,0,1.12.47,1.53,1.53,0,0,0,1.09-.44,1.56,1.56,0,0,0,0-2.21,27.29,27.29,0,0,0-5.87-4.56,1.56,1.56,0,1,0-1.56,2.7" transform="translate(0 -0.16)" style="fill:#dd2b57"/><path id="Fill-5" d="M76.28,47.61a1.55,1.55,0,0,0,1.52,1.21,1.45,1.45,0,0,0,.35,0,1.56,1.56,0,0,0,1.17-1.87A27.2,27.2,0,0,0,76.69,40,1.56,1.56,0,1,0,74,41.45a24.29,24.29,0,0,1,2.33,6.16" transform="translate(0 -0.16)" style="fill:#dd2b57"/><path id="Fill-7" d="M49.82,76.85a24,24,0,0,1-6.35-1.7A1.56,1.56,0,1,0,42.25,78,27,27,0,0,0,49.44,80h.19a1.56,1.56,0,0,0,.19-3.11" transform="translate(0 -0.16)" style="fill:#dd2b57"/><path id="Fill-9" d="M25.67,51.36h0A24.06,24.06,0,1,1,51.2,25.83h0A27.23,27.23,0,0,0,25.67,51.36m3.13,0A24.1,24.1,0,0,1,51.2,29,24.1,24.1,0,0,1,28.8,51.35M60.64,28.51a1.56,1.56,0,0,0-1.13-1.9,26.57,26.57,0,0,0-5.18-.78A27.19,27.19,0,1,0,25.75,54.49a1.45,1.45,0,0,0-.05.51,26.89,26.89,0,0,0,1.56,7.27,1.56,1.56,0,0,0,1.47,1,1.42,1.42,0,0,0,.53-.1,1.57,1.57,0,0,0,.94-2,23.52,23.52,0,0,1-1.38-6.43,2.93,2.93,0,0,0-.05-.29A27.22,27.22,0,0,0,54.32,29h0V29a25.41,25.41,0,0,1,4.42.69,1.55,1.55,0,0,0,1.89-1.13" transform="translate(0 -0.16)" style="fill:#dd2b57"/><path id="Fill-12" d="M78.48,52.68a1.56,1.56,0,0,0-1.63,1.48,24,24,0,0,1-1.22,6.47,1.57,1.57,0,0,0,1,2,1.8,1.8,0,0,0,.5.08,1.56,1.56,0,0,0,1.48-1.07A27,27,0,0,0,80,54.32a1.57,1.57,0,0,0-1.49-1.64" transform="translate(0 -0.16)" style="fill:#dd2b57"/><path id="Fill-15" d="M74.87,66.11a1.56,1.56,0,0,0-2.17.41,24.11,24.11,0,0,1-4.42,4.88,1.56,1.56,0,0,0,1,2.76,1.53,1.53,0,0,0,1-.37,27.21,27.21,0,0,0,5-5.51,1.56,1.56,0,0,0-.41-2.17" transform="translate(0 -0.16)" style="fill:#dd2b57"/><path id="Fill-17" d="M62.71,74.91a24.25,24.25,0,0,1-6.31,1.86,1.56,1.56,0,0,0,.23,3.1h.24A27,27,0,0,0,64,77.75a1.56,1.56,0,1,0-1.29-2.84" transform="translate(0 -0.16)" style="fill:#dd2b57"/><path id="Fill-19" d="M14.65,11.56A20.06,20.06,0,0,0,7,27.34a1.57,1.57,0,1,0,3.13,0A17,17,0,0,1,16.6,14a1.56,1.56,0,1,0-2-2.44" transform="translate(0 -0.16)" style="fill:#dd2b57"/><path id="Fill-21" d="M27.19,7.19A20.23,20.23,0,0,0,21.6,8,1.57,1.57,0,0,0,22,11a1.59,1.59,0,0,0,.43-.06,17.11,17.11,0,0,1,4.73-.67,1.56,1.56,0,0,0,0-3.12" transform="translate(0 -0.16)" style="fill:#dd2b57"/></g></g></svg>