<svg id="Réteg_1" data-name="Réteg 1" xmlns="http://www.w3.org/2000/svg" viewBox="0 0 80 80"><title>edit-3</title><g id="Pink-Icon-_-Edit-3" data-name="Pink-Icon-/-Edit-3"><g id="icon"><path id="Fill-1" d="M25.53,38.23A1.56,1.56,0,0,0,24,39.79V47a1.57,1.57,0,0,0,3.13,0V39.79a1.56,1.56,0,0,0-1.57-1.56" transform="translate(0 0)" style="fill:#dd2b57"/><path id="Fill-3" d="M38.31,24H31.24A7.28,7.28,0,0,0,24,31.24a1.57,1.57,0,0,0,3.13,0,4.14,4.14,0,0,1,4.14-4.14h7.07a1.57,1.57,0,0,0,0-3.13" transform="translate(0 0)" style="fill:#dd2b57"/><path id="Fill-5" d="M21.41,11.15h1.91a1.56,1.56,0,0,0,0-3.12H21.41a1.56,1.56,0,0,0,0,3.12" transform="translate(0 0)" style="fill:#dd2b57"/><path id="Fill-7" d="M14.45,8H9.8a1.56,1.56,0,0,0,0,3.12h4.65a1.56,1.56,0,1,0,0-3.12" transform="translate(0 0)" style="fill:#dd2b57"/><path id="Fill-9" d="M57.11,76.88a19.81,19.81,0,0,1-19.3-15.47,21.12,21.12,0,0,1-.44-3.12c0-.39,0-.79,0-1.18A20,20,0,0,1,57.11,37.34c.39,0,.79,0,1.18,0a21.12,21.12,0,0,1,3.12.44,19.77,19.77,0,0,1-4.3,39.07ZM34.24,58.29H26.6A7.65,7.65,0,0,1,19,50.65v-24A7.65,7.65,0,0,1,26.6,19h24a7.65,7.65,0,0,1,7.64,7.64v7.64c-.39,0-.79,0-1.18,0a23.14,23.14,0,0,0-22.9,22.9c0,.39,0,.79,0,1.18ZM15.84,42.45H3.13V3.13H42.45V15.84H26.6A10.78,10.78,0,0,0,15.84,26.6Zm45.57-7.83v-8A10.77,10.77,0,0,0,50.65,15.84H45.58V1.56A1.56,1.56,0,0,0,44,0H1.56A1.56,1.56,0,0,0,0,1.56V44a1.56,1.56,0,0,0,1.56,1.57H15.84v5.07A10.77,10.77,0,0,0,26.6,61.41h8A22.89,22.89,0,1,0,61.41,34.62Z" transform="translate(0 0)" style="fill:#dd2b57"/><path id="Fill-12" d="M61.59,42.93a1.56,1.56,0,0,0-.94,3,11.74,11.74,0,0,1,5.53,3.74,1.55,1.55,0,0,0,1.21.57,1.6,1.6,0,0,0,1-.35,1.56,1.56,0,0,0,.21-2.2,14.72,14.72,0,0,0-7-4.74" transform="translate(0 0)" style="fill:#dd2b57"/><path id="Fill-14" d="M52.34,42.93A14.85,14.85,0,0,0,42.19,57a1.56,1.56,0,0,0,3.12,0,11.73,11.73,0,0,1,8-11.14,1.56,1.56,0,0,0-1-3" transform="translate(0 0)" style="fill:#dd2b57"/></g></g></svg>