<svg id="Réteg_1" data-name="Réteg 1" xmlns="http://www.w3.org/2000/svg" viewBox="0 0 79.84 79.84"><title>edit-1</title><g id="Pink-Icon-_-Edit-1" data-name="Pink-Icon-/-Edit-1"><g id="icon"><path id="Fill-1" d="M5.93,20.37,7.3,21.74l7.22-7.22,7.23-7.23L20.38,5.93a9.08,9.08,0,0,0-12.83,0L5.93,7.54a9.08,9.08,0,0,0,0,12.83ZM52.77,67.21,67.21,52.76,24,9.5,9.51,24ZM3.73,5.34,5.34,3.72a12.21,12.21,0,0,1,17.24,0l2.47,2.47L70.52,51.66a.1.1,0,0,1,0,.05,1.3,1.3,0,0,1,.35.56l9,25.65a1.55,1.55,0,0,1-.37,1.62,1.52,1.52,0,0,1-1.1.45,1.57,1.57,0,0,1-.52-.08L72.76,78.1a1.56,1.56,0,0,1,1-2.95l2.1.74L68.79,55.64,55.65,68.79l11.53,4a1.56,1.56,0,1,1-1,2.94L52.28,70.91a1.65,1.65,0,0,1-.57-.35s0,0-.05,0L6.2,25.05h0L3.73,22.58a12.19,12.19,0,0,1,0-17.24Z" transform="translate(-0.16 -0.16)" style="fill:#dd2b57"/><path id="Fill-4" d="M33,25.1,59.21,51.34a1.55,1.55,0,0,1,0,2.2,1.55,1.55,0,0,1-2.2,0L30.77,27.31A1.56,1.56,0,0,1,33,25.1" transform="translate(-0.16 -0.16)" style="fill:#dd2b57"/><path id="Fill-6" d="M25.23,17.35l2.53,2.53a1.56,1.56,0,0,1,0,2.21,1.58,1.58,0,0,1-1.1.46,1.6,1.6,0,0,1-1.11-.46L23,19.55a1.56,1.56,0,0,1,2.21-2.2" transform="translate(-0.16 -0.16)" style="fill:#dd2b57"/></g></g></svg>