<svg id="Réteg_1" data-name="Réteg 1" xmlns="http://www.w3.org/2000/svg" viewBox="0 0 80 73.31"><title>files</title><g id="Pink-Icon-_-Files" data-name="Pink-Icon-/-Files"><g id="icon"><path id="Fill-1" d="M64.45,73.12H17.58a14.4,14.4,0,0,1-8.09-26.3h0a14.3,14.3,0,0,1,5.29-2.21h0a14.73,14.73,0,0,1,6.06.1,1.49,1.49,0,0,0,.36,0,1.6,1.6,0,0,0,.36-3.15,17.63,17.63,0,0,0-5.47-.39,8.9,8.9,0,0,1,8.83-7.88,8.49,8.49,0,0,1,2.52.37A13.76,13.76,0,0,0,26.39,39a1.6,1.6,0,1,0,3.19,0A10.66,10.66,0,0,1,31,33.69l0,0a10.59,10.59,0,0,1,18.59.57s.05.09.07.13a.36.36,0,0,1,0,.09,10.48,10.48,0,0,1,1,4.55,1.59,1.59,0,1,0,3.18,0,13.59,13.59,0,0,0-.76-4.53A13.2,13.2,0,0,1,69.83,46.16a15.64,15.64,0,0,0-5.38-1,1.6,1.6,0,1,0,0,3.19,12.37,12.37,0,0,1,0,24.73ZM69.8,6.19V37.4h0a16.39,16.39,0,0,0-18-5.84,13.78,13.78,0,0,0-22.7-.7,11.91,11.91,0,0,0-4.12-.72A12.09,12.09,0,0,0,12.87,41.78a17,17,0,0,0-2.67,1V6.19ZM73,47.78V4.59A1.6,1.6,0,0,0,71.39,3H8.61A1.6,1.6,0,0,0,7,4.59V44.68A17.58,17.58,0,0,0,17.58,76.31H64.45A15.54,15.54,0,0,0,73,47.78Z" transform="translate(0 -3)" style="fill:#dd2b57"/><path id="Fill-4" d="M7.33,54.73a1.65,1.65,0,0,0,.8.21,1.58,1.58,0,0,0,1.38-.8,9.23,9.23,0,0,1,2.31-2.67,1.6,1.6,0,0,0-2-2.51,12.43,12.43,0,0,0-3.1,3.6,1.59,1.59,0,0,0,.58,2.17" transform="translate(0 -3)" style="fill:#dd2b57"/><path id="Fill-6" d="M17.53,68a9.24,9.24,0,0,1-9.24-9.24,1.6,1.6,0,0,0-3.19,0A12.45,12.45,0,0,0,17.53,71.17a1.6,1.6,0,0,0,0-3.19" transform="translate(0 -3)" style="fill:#dd2b57"/><path id="Fill-8" d="M57.53,13.68h6.85a1.6,1.6,0,1,0,0-3.19H57.53a1.6,1.6,0,0,0,0,3.19" transform="translate(0 -3)" style="fill:#dd2b57"/><path id="Fill-10" d="M15.62,20.69H64.38a1.6,1.6,0,1,0,0-3.19H15.62a1.6,1.6,0,1,0,0,3.19" transform="translate(0 -3)" style="fill:#dd2b57"/><path id="Fill-12" d="M15.62,13.68H51.16a1.6,1.6,0,0,0,0-3.19H15.62a1.6,1.6,0,1,0,0,3.19" transform="translate(0 -3)" style="fill:#dd2b57"/></g></g></svg>