<svg id="Réteg_1" data-name="Réteg 1" xmlns="http://www.w3.org/2000/svg" viewBox="0 0 80 80"><title>film</title><g id="Pink-Icon-_-Film" data-name="Pink-Icon-/-Film"><g id="icon"><path id="Fill-1" d="M40,42.71A2.71,2.71,0,1,1,42.71,40,2.72,2.72,0,0,1,40,42.71m0-8.61A5.9,5.9,0,1,0,45.9,40,5.91,5.91,0,0,0,40,34.1" transform="translate(0 0)" style="fill:#dd2b57"/><path id="Fill-3" d="M40,76.81A36.81,36.81,0,1,1,76.81,40,36.85,36.85,0,0,1,40,76.81M68.28,11.72a40,40,0,0,0-56.56,0,40,40,0,0,0,0,56.56,40,40,0,0,0,56.56,0,40,40,0,0,0,0-56.56" transform="translate(0 0)" style="fill:#dd2b57"/><path id="Fill-6" d="M40,26.72a8.13,8.13,0,1,1,8.12-8.13A8.13,8.13,0,0,1,40,26.72M40,7.28A11.31,11.31,0,1,0,51.31,18.59,11.32,11.32,0,0,0,40,7.28" transform="translate(0 0)" style="fill:#dd2b57"/><path id="Fill-8" d="M27.34,35.91a8.1,8.1,0,1,1-.48-6.2,8.1,8.1,0,0,1,.48,6.2m2.36-7.64A11.31,11.31,0,1,0,16.13,44.16a11.43,11.43,0,0,0,3.5.56A11.31,11.31,0,0,0,29.7,28.27" transform="translate(0 0)" style="fill:#dd2b57"/><path id="Fill-10" d="M34,62.13a8.12,8.12,0,1,1,1.45-6,8.07,8.07,0,0,1-1.45,6m4.59-6.54a11.19,11.19,0,0,0-4.52-7.38,11.31,11.31,0,0,0-13.29,18.3,11.2,11.2,0,0,0,6.62,2.16,12,12,0,0,0,1.79-.14,11.3,11.3,0,0,0,9.4-12.94" transform="translate(0 0)" style="fill:#dd2b57"/><path id="Fill-12" d="M57.37,63.93a8.12,8.12,0,1,1,1.8-11.35,8.1,8.1,0,0,1-1.8,11.35m4.37-13.22A11.31,11.31,0,0,0,46,48.21a11.31,11.31,0,0,0,4.88,20.32,12,12,0,0,0,1.79.14,11.2,11.2,0,0,0,6.62-2.16,11.32,11.32,0,0,0,2.5-15.8" transform="translate(0 0)" style="fill:#dd2b57"/><path id="Fill-14" d="M67.62,37.09a8.13,8.13,0,1,1,.48-6.2,8.1,8.1,0,0,1-.48,6.2m3.52-7.18a11.32,11.32,0,1,0-.68,8.62,11.33,11.33,0,0,0,.68-8.62" transform="translate(0 0)" style="fill:#dd2b57"/><path id="Fill-16" d="M73.78,38.41A1.59,1.59,0,0,0,72.19,40a31.8,31.8,0,0,1-3.4,14.42,1.59,1.59,0,0,0,.71,2.14,1.51,1.51,0,0,0,.71.17,1.6,1.6,0,0,0,1.43-.88A35,35,0,0,0,75.38,40a1.59,1.59,0,0,0-1.6-1.59" transform="translate(0 0)" style="fill:#dd2b57"/><path id="Fill-18" d="M68.79,57.76a1.6,1.6,0,0,0-2.22.41q-.27.42-.57.81a1.6,1.6,0,0,0,.35,2.23,1.62,1.62,0,0,0,.94.3,1.6,1.6,0,0,0,1.29-.65L69.2,60a1.59,1.59,0,0,0-.41-2.22" transform="translate(0 0)" style="fill:#dd2b57"/></g></g></svg>