<svg id="Réteg_1" data-name="Réteg 1" xmlns="http://www.w3.org/2000/svg" viewBox="0 0 80 63.23"><title>grow</title><g id="Pink-Icon-_-Grow" data-name="Pink-Icon-/-Grow"><g id="icon"><path id="Fill-1" d="M73,68.27H35.38a6.13,6.13,0,0,1-4.83-2.39l-7.68-10V41.77H35.68a6.51,6.51,0,0,1,4.61,1.89l10,9.78c.08.08.15.17.22.25l.08.1.11.16.08.13.09.14.07.15a.84.84,0,0,1,.06.14,1,1,0,0,1,.07.15c0,.05,0,.1,0,.14a1.42,1.42,0,0,1,0,.16s0,.1,0,.15l0,.16s0,.1,0,.15,0,.1,0,.15a.91.91,0,0,0,0,.17v.14c0,.07,0,.13,0,.19a.62.62,0,0,1,0,.13l0,.21s0,.06,0,.1-.05.18-.07.27v0c0,.1-.06.2-.1.3l-.06.11a1.42,1.42,0,0,1-.08.18,1.09,1.09,0,0,1-.08.15l-.08.12a1.63,1.63,0,0,1-.11.17,1,1,0,0,0-.08.11l-.07.08-.19.21,0,0-.25.23,0,0-.23.17h0a3.4,3.4,0,0,1-3.71,0h0l-.22-.16,0,0-.24-.21,0,0-6.5-6.5A1.56,1.56,0,1,0,36.71,54L40,57.22l3.25,3.25,0,0,.2.19,0,0,.2.18h0a6.53,6.53,0,0,0,8.71-.45h0l0,0h0l0,0H73a3.91,3.91,0,0,1,3.9,3.91v0A3.91,3.91,0,0,1,73,68.27ZM55.89,45.35a9.87,9.87,0,0,1,7.91,3.92,1.57,1.57,0,0,0,2,.45,6.24,6.24,0,0,1,9,4.78h0a5.54,5.54,0,0,1,0,.8,7.05,7.05,0,0,1-.3,2H54.19s0-.05,0-.07a2.56,2.56,0,0,0,0-.27.43.43,0,0,0,0-.11c0-.11,0-.21,0-.32a.07.07,0,0,0,0,0l0-.38v-.46c0-.12,0-.23,0-.35v0c0-.27-.07-.53-.12-.79v0c0-.12-.06-.25-.09-.37h0a7,7,0,0,0-.27-.77h0c-.05-.12-.11-.23-.16-.35l0,0a7,7,0,0,0-.41-.69l0,0-.2-.28L53,51.82l-.19-.22-.07-.09-.27-.28L49.14,48a10,10,0,0,1,6.75-2.63ZM16.2,59.18h3.55V41.77H16.2Zm-3.12,1.57V63h-10V41.77h10ZM54.27,36.34c-2.43.16-8,.14-11.11-3s-3.16-8.68-3-11.11c2.43-.17,8-.15,11.12,3h0c3.13,3.13,3.15,8.69,3,11.12Zm6.22-22c3.13-3.13,8.69-3.15,11.12-3,.17,2.43.15,8-3,11.11-2.36,2.36-6.1,2.95-8.84,3l6.65-6.38a1.55,1.55,0,0,0,0-2.21,1.57,1.57,0,0,0-2.21-.05l-6.81,6.54c0-2.76.62-6.63,3-9ZM77.3,58.8a10.5,10.5,0,0,0,.63-3.5,9.94,9.94,0,0,0-.08-1.2,9.38,9.38,0,0,0-9.29-8.17,9.27,9.27,0,0,0-3.06.51,12.9,12.9,0,0,0-8-4.12V28.58c.46,0,1,.05,1.62.05,3.3,0,8.41-.62,11.76-4,5.18-5.18,3.81-14.59,3.75-15a1.57,1.57,0,0,0-1.31-1.31c-.39-.06-9.8-1.42-15,3.76-3.37,3.37-4,8.52-4,11.83a10.53,10.53,0,0,0-.83-.94c-5.19-5.18-14.59-3.82-15-3.76a1.57,1.57,0,0,0-1.31,1.31c-.06.4-1.43,9.81,3.76,15,3.34,3.35,8.45,4,11.76,4,.61,0,1.15,0,1.61-.05v2.85a13,13,0,0,0-7.41,3.47l-4.42-4.36a9.69,9.69,0,0,0-6.81-2.78H1.56A1.56,1.56,0,0,0,0,40.21v24.3a1.56,1.56,0,0,0,1.56,1.56H14.64a1.56,1.56,0,0,0,1.56-1.56v-2.2h5.11A1.56,1.56,0,0,0,22.85,61l5.22,6.79a9.28,9.28,0,0,0,7.32,3.61H73a7,7,0,0,0,7-7v0a7,7,0,0,0-2.7-5.54Z" transform="translate(0 -8.16)" style="fill:#dd2b57"/><path id="Fill-4" d="M35.22,48.43a1.4,1.4,0,0,0-.09-.29,1.17,1.17,0,0,0-.15-.27,1.33,1.33,0,0,0-.43-.43,1.17,1.17,0,0,0-.27-.15A1.4,1.4,0,0,0,34,47.2a1.57,1.57,0,0,0-.61,0,1.4,1.4,0,0,0-.29.09,1.17,1.17,0,0,0-.27.15,1.33,1.33,0,0,0-.43.43,1.17,1.17,0,0,0-.15.27,1.4,1.4,0,0,0-.09.29,1.53,1.53,0,0,0,0,.3,1.55,1.55,0,0,0,0,.31,1.4,1.4,0,0,0,.09.29,1.17,1.17,0,0,0,.15.27,1.33,1.33,0,0,0,.43.43,1.17,1.17,0,0,0,.27.15,1.4,1.4,0,0,0,.29.09,1.55,1.55,0,0,0,.31,0l.3,0a1.4,1.4,0,0,0,.29-.09,1.17,1.17,0,0,0,.27-.15A1.33,1.33,0,0,0,35,49.6a1.17,1.17,0,0,0,.15-.27,1.4,1.4,0,0,0,.09-.29,1.55,1.55,0,0,0,0-.31,1.53,1.53,0,0,0,0-.3" transform="translate(0 -8.16)" style="fill:#dd2b57"/><path id="Fill-6" d="M70.74,13.81a1.4,1.4,0,0,0-.09-.29,1.43,1.43,0,0,0-.15-.27,1.12,1.12,0,0,0-.19-.24,1.56,1.56,0,0,0-1.41-.42,1.4,1.4,0,0,0-.29.09.87.87,0,0,0-.27.14,1.55,1.55,0,0,0-.24.19,1.12,1.12,0,0,0-.19.24,1.43,1.43,0,0,0-.15.27,1.4,1.4,0,0,0-.09.29,1.63,1.63,0,0,0,0,.31,1.57,1.57,0,0,0,.46,1.1,1.16,1.16,0,0,0,.24.2,1.71,1.71,0,0,0,.27.14,1.4,1.4,0,0,0,.29.09,1.55,1.55,0,0,0,.31,0,1.57,1.57,0,0,0,1.1-.46A1.37,1.37,0,0,0,70.5,15a1.82,1.82,0,0,0,.15-.27,1.71,1.71,0,0,0,.09-.3,1.53,1.53,0,0,0,0-.3,1.63,1.63,0,0,0,0-.31" transform="translate(0 -8.16)" style="fill:#dd2b57"/></g></g></svg>