<svg id="Réteg_1" data-name="Réteg 1" xmlns="http://www.w3.org/2000/svg" viewBox="0 0 79.84 61.58"><title>hand-earth</title><g id="Pink-Icon-_-Hand-Earth" data-name="Pink-Icon-/-Hand-Earth"><g id="Icon"><path id="Fill-1" d="M57.8,50.12H56.47l-.19,0L56,50l-.19,0-.25,0-.2,0-.24,0-.19,0-.25,0-.19,0-.24,0-.19,0-.24,0-.19,0-.24-.06-.18,0L53,49.5l-.17,0-.27-.08-.15,0-.33-.1-.08,0-.42-.14-.09,0-.32-.12L51,48.87l-.26-.1-.16-.07-.24-.1-.17-.07L50,48.42l-.17-.08-.23-.1-.17-.09L49.16,48,49,48l-.21-.11-.17-.09-.22-.13-.16-.09L48,47.4l-.16-.1-.21-.13-.16-.1-.22-.15-.14-.1-.25-.17-.11-.08-.35-.26,0,0L46.06,46l-.12-.1-.23-.18-.13-.11-.16-.14a4.88,4.88,0,0,1,.91-1.26l1.84-1.84a8.34,8.34,0,0,0,2.45-5.93V34.77a7.12,7.12,0,0,0-2.1-5.07h0a5.43,5.43,0,0,0-3.89-1.62.33.33,0,0,1-.25-.1l-.84-.84a7.11,7.11,0,0,0-3.66-2c.06-.19.13-.39.2-.58h0c.08-.23.17-.45.26-.67l.09-.2.21-.48.1-.21c.09-.2.19-.4.29-.6l0,0c.11-.21.22-.42.34-.63l.11-.18.27-.45.12-.19c.11-.17.22-.35.34-.52l.05-.07.41-.57.13-.16c.11-.14.21-.28.32-.41a2.09,2.09,0,0,0,.14-.17l.39-.45.08-.09q.23-.25.48-.51l.13-.14.38-.36c.05-.05.1-.11.16-.16s.28-.26.43-.38l.09-.09L46,16.4l.15-.11.42-.32.18-.13c.15-.11.3-.22.46-.32l.12-.09c.19-.13.39-.25.59-.37L48,15a4.39,4.39,0,0,1,.47-.27l.19-.11.49-.26.14-.07L50,14l.15-.06.51-.22.21-.08.52-.19.15-.06.68-.22.15,0,.55-.15.22-.06.18,0a3.57,3.57,0,0,0-2,3l-.32.33a6.52,6.52,0,0,0-1.93,4.66v1.3a3.35,3.35,0,0,0,3.34,3.34h0a5.05,5.05,0,0,0-1.66,3.75V30.7a4.94,4.94,0,0,0,4.37,4.9v2a7,7,0,0,0,2.05,5l.45.44a1.07,1.07,0,0,1,.3.74A4.32,4.32,0,0,0,62.28,48a3.56,3.56,0,0,0,3.56-3.56v-.06a1.15,1.15,0,0,1,.18-.62l1.17-1.95,0,0,1-1.58a11.45,11.45,0,0,1,1.68-2.17L70.92,37a3,3,0,0,0,.65-3.33,2.9,2.9,0,0,0-.7-1,4.71,4.71,0,0,0,1.67.31,4.57,4.57,0,0,0,4.16-2.64c0,.05,0,.11,0,.16a.76.76,0,0,0,0,.15c0,.19,0,.39,0,.58A19,19,0,0,1,57.8,50.12ZM43.17,43.2a18.74,18.74,0,0,1-4.29-12,19.77,19.77,0,0,1,.23-3,4,4,0,0,1,2.2,1.12l.85.85a3.44,3.44,0,0,0,2.45,1,2.38,2.38,0,0,1,1.69.7l0,0a4,4,0,0,1,1.18,2.86v1.72A5.26,5.26,0,0,1,46,40.21l-1.84,1.84a8.06,8.06,0,0,0-.95,1.15Zm13.12-19h0a3.85,3.85,0,0,0,.82-1.43l4.35.81a3.6,3.6,0,0,1,.39.62Zm-1.87-8V16a.43.43,0,0,1,.43-.43H55l5.86-.48a1.56,1.56,0,0,0,1.43-1.62,1.53,1.53,0,0,0-.2-.7A18.82,18.82,0,0,1,75.35,24.1h-.9a1.63,1.63,0,0,0-1.54,1v0A1.65,1.65,0,0,0,73.27,27l.31.31A1.48,1.48,0,0,1,74,28.34a1.46,1.46,0,0,1-.44,1.06,1.46,1.46,0,0,1-2.07,0l-.77-.76a6.3,6.3,0,0,0-3.55-1.79,1.59,1.59,0,0,0-1.62.85,1.55,1.55,0,0,0,.3,1.8l.21.21a3.42,3.42,0,0,1,1,2.42v1.1A1.68,1.68,0,0,0,68.6,34.9l-1,1a14.73,14.73,0,0,0-2.15,2.76l-.94,1.56v0l-1.19,2a4.27,4.27,0,0,0-.63,2.23v.06a.44.44,0,0,1-.44.44,1.21,1.21,0,0,1-.86-.35,1.19,1.19,0,0,1-.35-.86,4.12,4.12,0,0,0-1.22-2.94l-.44-.44a3.86,3.86,0,0,1-1.14-2.76V34.73a2.22,2.22,0,0,0-2.22-2.21h-.33A1.82,1.82,0,0,1,53.9,30.7V29.23a1.94,1.94,0,0,1,1.94-1.94h7.9a1.56,1.56,0,0,0,1.56-1.56v-.08A6.53,6.53,0,0,0,63.37,21a1.56,1.56,0,0,0-.81-.43l-6.29-1.17a1.57,1.57,0,0,0-1.38.43,2.37,2.37,0,0,0-.71,1.71.82.82,0,0,1-.82.81h-1a.22.22,0,0,1-.22-.22v-1.3a3.48,3.48,0,0,1,1-2.46l.57-.56a2.33,2.33,0,0,0,.67-1.63ZM79.83,30.44c0-.28,0-.55,0-.83A22.21,22.21,0,0,0,79,25.24,22,22,0,0,0,58.51,9.17H57.8A22.12,22.12,0,0,0,44,14c-.24.19-.47.39-.7.6a22.11,22.11,0,0,0-6.73,10.73c-.08.29-.16.59-.22.89a22.16,22.16,0,0,0-.56,4.95,22,22,0,0,0,44.08,0c0-.25,0-.51,0-.76Z" transform="translate(0 -9.16)" style="fill:#dd2b57"/><path id="Fill-4" d="M63.64,67.61H31a5.13,5.13,0,0,1-4-2L20.29,57h0V45s0,0,0,0H31.22a5.52,5.52,0,0,1,3.88,1.59l8.64,8.5A2.73,2.73,0,0,1,44.55,57,2.77,2.77,0,0,1,44,58.72l-.07.07a1.22,1.22,0,0,1-.15.17h0a2.64,2.64,0,0,1-1.25.72,2.9,2.9,0,0,1-1.24,0,2.76,2.76,0,0,1-1.4-.76l-5.65-5.65a1.56,1.56,0,0,0-2.21,0,1.6,1.6,0,0,0-.46,1.1,1.58,1.58,0,0,0,.18.73,1.69,1.69,0,0,0,.28.38l5.65,5.65a5.82,5.82,0,0,0,4.15,1.72h.68l.19,0h.09l.19,0,.07,0,.21-.05h0l.23-.06h0l.25-.08h0a6,6,0,0,0,1.73-1l0,0,.19-.16.08-.07.11-.11H63.64a3.21,3.21,0,0,1,0,6.41Zm-46.47-7.9H14.49V45s0,0,0,0h2.66s0,0,0,0Zm-5.8.06H3.12V45s0,0,0,0h8.23s0,0,0,0Zm52.27-1.68H47.58s0,0,0,0a6.14,6.14,0,0,0,.1-1.06,5.81,5.81,0,0,0-1.73-4.15l-8.66-8.52a8.56,8.56,0,0,0-6.05-2.48H1.57A1.57,1.57,0,0,0,0,43.43v17.9A1.57,1.57,0,0,0,1.57,62.9H12.93a1.54,1.54,0,0,0,.43-.06h5.37a1.55,1.55,0,0,0,1.41-.9h0l4.29,5.58A8.26,8.26,0,0,0,31,70.73H63.64a6.32,6.32,0,1,0,0-12.64Z" transform="translate(0 -9.16)" style="fill:#dd2b57"/><path id="Fill-7" d="M31,50.53a1.4,1.4,0,0,0-.09-.29,1.71,1.71,0,0,0-.14-.27,1.16,1.16,0,0,0-.2-.24,1.37,1.37,0,0,0-.23-.19,1.82,1.82,0,0,0-.27-.15,1.61,1.61,0,0,0-.29-.09,1.57,1.57,0,0,0-.61,0,1.4,1.4,0,0,0-.29.09,1.17,1.17,0,0,0-.27.15,1.33,1.33,0,0,0-.43.43,1.17,1.17,0,0,0-.15.27,1.4,1.4,0,0,0-.09.29,1.53,1.53,0,0,0,0,.3,1.63,1.63,0,0,0,0,.31,1.4,1.4,0,0,0,.09.29,1.82,1.82,0,0,0,.15.27,2,2,0,0,0,.19.24,1.55,1.55,0,0,0,.24.19,1.71,1.71,0,0,0,.27.14,1.4,1.4,0,0,0,.29.09,1.53,1.53,0,0,0,.3,0,1.51,1.51,0,0,0,.6-.12l.27-.14a1.65,1.65,0,0,0,.43-.43c.05-.09.1-.18.14-.27a1.4,1.4,0,0,0,.09-.29,1.63,1.63,0,0,0,0-.31,1.53,1.53,0,0,0,0-.3" transform="translate(0 -9.16)" style="fill:#dd2b57"/></g></g></svg>