<svg id="Réteg_1" data-name="Réteg 1" xmlns="http://www.w3.org/2000/svg" viewBox="0 0 80 57.97"><title>hand</title><g id="Pink-Icon-_-Hand" data-name="Pink-Icon-/-Hand"><g id="icon"><path id="Fill-1" d="M42.07,44.72l-.24-.2-.27-.14a1.61,1.61,0,0,0-.29-.09,1.57,1.57,0,0,0-1.87,1.53,1.59,1.59,0,0,0,.46,1.11,1.56,1.56,0,0,0,1.1.45,1.51,1.51,0,0,0,.6-.12,1.74,1.74,0,0,0,.27-.14l.24-.19a1.58,1.58,0,0,0,.45-1.11,1.56,1.56,0,0,0-.45-1.1" transform="translate(0 -11.16)" style="fill:#dd2b57"/><path id="Fill-3" d="M71.34,30.26l-.17-.16h0L60.89,19.82l4.89-4.89L76.23,25.37Zm-3.78,6.17A21.38,21.38,0,0,1,62,47.57c-.11.11-.21.22-.32.32l-3.49,3.5-.83-.82L42.71,35.93l3.9-3.9a1.56,1.56,0,0,0-2.21-2.21L34,40.25a1.27,1.27,0,0,1-.12.1h0a1.56,1.56,0,0,1-2,0h0l-.11-.1-.11-.12v0a.44.44,0,0,1-.08-.11h0a1.54,1.54,0,0,1,0-1.72h0l.08-.11h0l.11-.12L43.15,26.65a9.09,9.09,0,0,1,7.7-2.56,11.81,11.81,0,0,0,3.64-.33h0c1.72-.32,3.57-.79,4.79-1.14l3.47,3.47-4.31,4.3a5.06,5.06,0,0,1-7.16,0l-.15-.14a1.56,1.56,0,0,0-2.21,2.21l.15.14a8.18,8.18,0,0,0,11.58,0L65,28.3l3.43,3.43ZM56.87,57a1.77,1.77,0,0,1-2.51,0l-8.82-8.83a1.56,1.56,0,0,0-2.21,2.21L54.51,61.58A1.77,1.77,0,0,1,52,64.09L34.84,46.93A1.56,1.56,0,0,0,32.18,48a1.59,1.59,0,0,0,.45,1.11L46.26,62.76a1.77,1.77,0,1,1-2.51,2.51L29.67,51.2a1.56,1.56,0,0,0-2.21,2.21L37,63l0,0a1.77,1.77,0,0,1,0,2.48,1.73,1.73,0,0,1-1.25.52,1.75,1.75,0,0,1-1.26-.52L19.4,50.35,19.06,50a22.83,22.83,0,0,1-6-12L12.18,33,22,23.17c2.14.6,7.07,1.86,9,1.58a11.06,11.06,0,0,1,7.6,2l-9,9-.17.17,0,0-.13.15h0a4.67,4.67,0,0,0,0,5.9h0a1.83,1.83,0,0,0,.13.16l0,0,.17.18.17.16,0,0,.16.14h0A4.68,4.68,0,0,0,36,42.63h0l.17-.16,3-3.06,1.27-1.26L56.87,54.51h0l.06.07,0,0s0,0,0,0a1.72,1.72,0,0,1,.4,1.11A1.8,1.8,0,0,1,56.87,57ZM9.14,31.6,3.77,26.23l11.3-11.3,5.37,5.37Zm70.4-7.33L66.89,11.61a1.56,1.56,0,0,0-2.21,0l-7.1,7.1A1.6,1.6,0,0,0,57.13,20c-1,.25-2.16.52-3.22.72h0a9.33,9.33,0,0,1-2.61.3,12.27,12.27,0,0,0-10.36,3.45l-.11.11a14.14,14.14,0,0,0-10.28-2.89,29.18,29.18,0,0,1-6.35-1.12,1.57,1.57,0,0,0-.44-1.35l-7.58-7.58a1.56,1.56,0,0,0-2.21,0L.46,25.12a1.56,1.56,0,0,0,0,2.21L8,34.92a1.55,1.55,0,0,0,1.1.45l.29,0L10,38.59a26,26,0,0,0,6.8,13.57l.39.4L32.32,67.69a4.91,4.91,0,0,0,8-1.48l1.27,1.27a4.91,4.91,0,0,0,6.93,0,5,5,0,0,0,1-1.49l.31.31a4.89,4.89,0,0,0,7.65-6,5,5,0,0,0,1.63-1.08,4.9,4.9,0,0,0,1.43-3.47,4.76,4.76,0,0,0-.39-1.91l3.75-3.75.36-.37A24.41,24.41,0,0,0,70.63,37L71.15,34l.19,0a1.56,1.56,0,0,0,1.1-.46l7.1-7.1a1.56,1.56,0,0,0,0-2.21Z" transform="translate(0 -11.16)" style="fill:#dd2b57"/></g></g></svg>