<svg id="Réteg_1" data-name="Réteg 1" xmlns="http://www.w3.org/2000/svg" viewBox="0 0 70.47 80"><title>idea</title><g id="Pink-Icon-_-Idea" data-name="Pink-Icon-/-Idea"><g id="icon"><path id="Fill-1" d="M50.38,58.45a1.58,1.58,0,0,0-.91,1.42v3.6H31v-3.6a1.57,1.57,0,0,0-.9-1.42,24.28,24.28,0,1,1,20.29,0ZM47.94,70.12H32.53V66.6H47.94Zm-13.7,6.75h12V73.24h-12ZM40.23,9A27.4,27.4,0,0,0,27.87,60.85V65a1.55,1.55,0,0,0,1.53,1.56v5.09A1.56,1.56,0,0,0,31,73.24h.14v5.2A1.56,1.56,0,0,0,32.67,80H47.8a1.56,1.56,0,0,0,1.56-1.56v-5.2h.14a1.56,1.56,0,0,0,1.57-1.56V66.59A1.55,1.55,0,0,0,52.6,65V60.85A27.4,27.4,0,0,0,40.23,9Z" transform="translate(-5)" style="fill:#dd2b57"/><path id="Fill-3" d="M49.65,42.43,41.8,34.57V24.4a11.51,11.51,0,0,1,7.85,18ZM41.8,47.22V39l5.72,5.73a11.46,11.46,0,0,1-5.72,2.5ZM38.67,34.56l-7.86,7.86a11.51,11.51,0,0,1,7.86-18Zm0,12.66a11.47,11.47,0,0,1-5.73-2.51L38.67,39Zm1.56-26.06a14.65,14.65,0,0,0-1.56,29.21v4.79a1.57,1.57,0,1,0,3.13,0V50.37a14.65,14.65,0,0,0-1.57-29.21Z" transform="translate(-5)" style="fill:#dd2b57"/><path id="Fill-5" d="M41.77,60.33a1.4,1.4,0,0,0-.09-.29,1.17,1.17,0,0,0-.15-.27,1.12,1.12,0,0,0-.19-.24,1.56,1.56,0,0,0-2.21,0,1.12,1.12,0,0,0-.19.24,1.17,1.17,0,0,0-.15.27,1.4,1.4,0,0,0-.09.29,1.55,1.55,0,0,0,0,.31,1.53,1.53,0,0,0,0,.3,1.4,1.4,0,0,0,.09.29,1.17,1.17,0,0,0,.15.27,1.12,1.12,0,0,0,.19.24,1.56,1.56,0,0,0,2.21,0,1.12,1.12,0,0,0,.19-.24,1.17,1.17,0,0,0,.15-.27,1.4,1.4,0,0,0,.09-.29,1.53,1.53,0,0,0,0-.3,1.55,1.55,0,0,0,0-.31" transform="translate(-5)" style="fill:#dd2b57"/><path id="Fill-7" d="M40.23,0a1.56,1.56,0,0,0-1.56,1.56v3.6a1.57,1.57,0,0,0,3.13,0V1.56A1.56,1.56,0,0,0,40.23,0" transform="translate(-5)" style="fill:#dd2b57"/><path id="Fill-9" d="M20.71,11.93,18.17,9.39A1.56,1.56,0,0,0,16,11.6l2.54,2.54a1.52,1.52,0,0,0,1.1.46,1.57,1.57,0,0,0,1.11-2.67" transform="translate(-5)" style="fill:#dd2b57"/><path id="Fill-11" d="M64.51,9.39a1.56,1.56,0,0,0-2.21,0l-2.54,2.54a1.57,1.57,0,0,0,1.11,2.67,1.52,1.52,0,0,0,1.1-.46l2.54-2.54a1.56,1.56,0,0,0,0-2.21" transform="translate(-5)" style="fill:#dd2b57"/><path id="Fill-13" d="M73.91,32.11h-3.6a1.56,1.56,0,0,0,0,3.12h3.6a1.56,1.56,0,0,0,0-3.12" transform="translate(-5)" style="fill:#dd2b57"/><path id="Fill-15" d="M10.16,32.11H6.56a1.56,1.56,0,0,0,0,3.12h3.6a1.56,1.56,0,0,0,0-3.12" transform="translate(-5)" style="fill:#dd2b57"/></g></g></svg>