<svg id="Réteg_1" data-name="Réteg 1" xmlns="http://www.w3.org/2000/svg" viewBox="0 0 73.9 80"><title>live</title><g id="Pink-Icon-_-Live" data-name="Pink-Icon-/-Live"><g id="icon"><path id="Fill-1" d="M6.85,76.81a35.46,35.46,0,0,1,10.7-14.59,35.12,35.12,0,0,0,44.8,0A35.53,35.53,0,0,1,73,76.81ZM8,35.14a32,32,0,1,1,32,32,32,32,0,0,1-32-32ZM76.82,77.92A38.54,38.54,0,0,0,64.73,60.06L64.8,60a35.14,35.14,0,0,0-49.7-49.7,35.15,35.15,0,0,0,0,49.7l.06.07A38.52,38.52,0,0,0,3.08,77.92,1.6,1.6,0,0,0,4.59,80H75.3a1.6,1.6,0,0,0,1.52-2.08Z" transform="translate(-3)" style="fill:#dd2b57"/><path id="Fill-3" d="M40,50.55a15.41,15.41,0,1,1,15.4-15.41A15.42,15.42,0,0,1,40,50.55m0-34A18.6,18.6,0,1,0,58.54,35.14,18.61,18.61,0,0,0,40,16.55" transform="translate(-3)" style="fill:#dd2b57"/><path id="Fill-5" d="M40,40.83a5.69,5.69,0,1,1,5.69-5.69A5.69,5.69,0,0,1,40,40.83m0-14.57a8.88,8.88,0,1,0,8.88,8.88A8.89,8.89,0,0,0,40,26.26" transform="translate(-3)" style="fill:#dd2b57"/><path id="Fill-7" d="M31.73,8.16a1.59,1.59,0,0,0-2.05-.94,28,28,0,0,0-3.42,1.51,1.59,1.59,0,0,0,.74,3,1.46,1.46,0,0,0,.73-.18,26.62,26.62,0,0,1,3.05-1.34,1.6,1.6,0,0,0,.95-2.05" transform="translate(-3)" style="fill:#dd2b57"/><path id="Fill-9" d="M50.43,7.3A29.64,29.64,0,0,0,40,5.4c-1,0-1.91,0-2.85.13a1.59,1.59,0,1,0,.3,3.17c.84-.08,1.7-.12,2.55-.12a26.38,26.38,0,0,1,9.36,1.7,1.54,1.54,0,0,0,.56.1,1.59,1.59,0,0,0,.56-3.08" transform="translate(-3)" style="fill:#dd2b57"/></g></g></svg>