<svg id="Réteg_1" data-name="Réteg 1" xmlns="http://www.w3.org/2000/svg" viewBox="0 0 64.23 80"><title>man-heart</title><g id="Pink-Icon-_-Man-Heart" data-name="Pink-Icon-/-Man-Heart"><g id="icon"><path id="Fill-1" d="M67.5,66.37c-2.34,3.94-10,8.7-12.51,10.26l-.13.08-.13-.09a67.26,67.26,0,0,1-9.87-7.19l-.06-.06a16.61,16.61,0,0,1-2.09-2.31l0,0-.22-.31-.22-.35a10.83,10.83,0,0,1-1.61-5.89c0-4.72,3-7.07,6.27-7.47a8.72,8.72,0,0,1,1-.06c3.27,0,5.62,3.13,5.64,3.16a1.27,1.27,0,0,0,.25.27l.09.07.05,0a1.53,1.53,0,0,0,.86.26A1.55,1.55,0,0,0,56,56.28h0l.08-.09,0,0,0,0c.19-.25,2.56-3.16,5.7-3.16,3.64,0,7.3,2.32,7.3,7.53a10.9,10.9,0,0,1-1.6,5.89m-30-4.87a13.83,13.83,0,0,0,2,6.46h0c.07.11.13.22.21.33l.06.1c.06.1.14.2.21.31a1,1,0,0,0,.08.11l.09.13H11.13V64.26H27.52a1.57,1.57,0,0,0,0-3.13H11.13V54.08a4.46,4.46,0,0,1,4.46-4.46H24.4L31,58.05a1.59,1.59,0,0,0,1.24.61,1.54,1.54,0,0,0,1.11-.47l.12-.14L40,49.62h8.82a4.38,4.38,0,0,1,2.94,1.12l0,0-.4-.18h0L51,50.38l-.05,0-.4-.14-.07,0L50,50.09l-.07,0c-.14,0-.28-.07-.43-.09l-.07,0L49,49.89H49l-.47,0h0l-.51,0A10.13,10.13,0,0,0,37.51,60.48q0,.51,0,1M18.35,28.78V27.2a13.44,13.44,0,0,1,1.18-1.88h0c.05-.07.1-.15.16-.22l0,0,.16-.19.06-.07.11-.13.09-.1.13-.14.11-.11a.23.23,0,0,1,.07-.07l.23-.24,0,0,.14-.13,0,0c.15-.13.3-.26.47-.39l0,0,.52-.37,0,0,.34-.21,0,0,.17-.1.07,0,.31-.16.08,0,.17-.08.12-.05.25-.1.15-.06.15-.05.18-.06.18-.06.23-.06.12,0,.27-.06.09,0,.3,0,.11,0,.33,0h0l.37,0h.48a14.13,14.13,0,0,0,9.87-3.55,4.47,4.47,0,0,0,.4.34A17.83,17.83,0,0,0,40,20.35a12.28,12.28,0,0,1,2.32,1.32l.32.29.12.11c.06.06.12.11.17.17l.16.15.09.09a18.07,18.07,0,0,1,2.9,3.75v2.55a13.78,13.78,0,0,1-8.8,12.91,1.57,1.57,0,0,0-.93,1.89l1.19,4.14-5.32,6.83-5.33-6.83,1.19-4.14a1.56,1.56,0,0,0-.93-1.89,13.79,13.79,0,0,1-8.8-12.91m-1.2-5.49a52.9,52.9,0,0,1-.51-7.39c0-6.28,5.14-12.78,13.75-12.78a11.06,11.06,0,0,1,7.73,2.62,1.58,1.58,0,0,0,1.7.22c1.75-.85,4,.21,6.08,2.83h0c3.52,4.48,2.66,10.48,1.68,14l0-.05-.23-.31-.08-.09L47,22.06,46.91,22l-.25-.3-.11-.12-.26-.31-.12-.13-.27-.3a.86.86,0,0,1-.13-.14l-.3-.3-.14-.14L45,19.9l-.14-.13c-.15-.15-.31-.3-.48-.44a13.54,13.54,0,0,0-3-1.79,13.64,13.64,0,0,1-2.94-1.72,2.09,2.09,0,0,1-.48-.65,1.56,1.56,0,0,0-2.64-.46,10.86,10.86,0,0,1-8.84,3.84l-.65,0h0a11.58,11.58,0,0,0-8.65,4.72m51.93,29.3a10.5,10.5,0,0,0-7.28-2.77,9.73,9.73,0,0,0-5.71,2,7.59,7.59,0,0,0-7.24-5.35H40.44L39.73,44a17,17,0,0,0,9.48-15.24V27.39a2.46,2.46,0,0,0,.17-.27c.22-.49,5.46-12-1-20.26-2.73-3.48-6-4.95-8.94-4.09a14.61,14.61,0,0,0-9-2.77C19.83,0,13.52,8.08,13.52,15.9a47.09,47.09,0,0,0,1.41,12.23,1.53,1.53,0,0,0,.29.55v.1A17,17,0,0,0,24.7,44L24,46.49h-8.4A7.6,7.6,0,0,0,8,54.08V70.5a1.56,1.56,0,0,0,1.56,1.57H43.11a71.77,71.77,0,0,0,10,7.2l.61.39a2.18,2.18,0,0,0,1.18.34A2.13,2.13,0,0,0,56,79.66l.61-.38C61.28,76.4,67.75,72.08,70.19,68a14,14,0,0,0,2-7.48,10.54,10.54,0,0,0-3.15-7.89" transform="translate(-8)" style="fill:#dd2b57"/></g></g></svg>