<svg id="Réteg_1" data-name="Réteg 1" xmlns="http://www.w3.org/2000/svg" viewBox="0 0 80 80"><title>man-woman</title><g id="Pink-Icon-_-Man-Woman" data-name="Pink-Icon-/-Man-Woman"><g id="icon"><path id="Fill-1" d="M28,41.22H3.13V32.54a2.11,2.11,0,0,1,.42-1.28l.11-.13,0-.06L3.83,31a.12.12,0,0,0,0-.05l.18-.14h0l.21-.13h0l.19-.09.06,0,.17-.05.07,0,.18,0H5l.25,0h.82a.5.5,0,0,1,0,.12l0,.11a1.62,1.62,0,0,0,0,.19.3.3,0,0,1,0,.1l.06.21,0,.07c0,.09.06.19.09.28s0,0,0,.05l.09.22a.36.36,0,0,0,0,.09c0,.06,0,.12.07.17l.06.11.07.15.06.11.09.14.06.11.09.14.07.1.1.14.06.09.12.15.06.07.17.2,0,0,.2.21.06.06.14.13.09.08a.69.69,0,0,0,.13.11l.09.08.13.1.1.07a.71.71,0,0,0,.14.1l.1.07.14.09.1.06.15.09.1.06.19.09.07,0,.26.12.07,0,.2.08.1,0,.17.06.12,0,.17,0,.12,0,.17,0,.12,0,.17,0,.12,0,.18,0h.12l.2,0h7.32l.2,0h.12l.18,0,.12,0,.17,0,.12,0,.17,0,.12,0,.17,0,.12,0,.17-.06.1,0,.2-.08.07,0,.26-.12.07,0,.19-.09.1-.06.15-.09.1-.06.14-.09.1-.07.14-.1.1-.07.13-.1.09-.08a.69.69,0,0,0,.13-.11l.09-.08a1.59,1.59,0,0,0,.13-.13l.07-.06.2-.21,0,0,.17-.2.06-.07.11-.15.07-.09.1-.14a.86.86,0,0,1,.07-.1l.09-.14.06-.11.09-.14a.54.54,0,0,0,.05-.11,1.09,1.09,0,0,0,.08-.15.54.54,0,0,0,.05-.11.89.89,0,0,0,.08-.17.36.36,0,0,0,0-.09l.09-.22,0-.05.09-.28a.19.19,0,0,0,0-.07.83.83,0,0,0,.06-.21l0-.1c0-.07,0-.13,0-.19l0-.11a.5.5,0,0,1,0-.12h.89l.24,0h.06l.18,0,.07,0,.17.05.06,0,.18.09h0l.21.13h0l.18.13s0,0,.05.05l.12.12.06.06.1.13A2.12,2.12,0,0,1,28,32.54Zm-14.82-17a10.59,10.59,0,0,1-3.63-3.56l-.06-.11s-.05-.1-.08-.14a6.36,6.36,0,0,1-.77-3.11A32.47,32.47,0,0,0,14.4,12c.43-.48.83-.93,1.16-1.32,1.62,1.89,4.53,5.1,6.92,6.63A6.93,6.93,0,0,1,21.92,20c-.09.19-.19.37-.29.56l-.06.11A10.64,10.64,0,0,1,18,24.23a1.55,1.55,0,0,0-.77,1.34c0,.16,0,.3,0,.44s0,.13,0,.19,0,.15,0,.22l0,.24a.5.5,0,0,1,0,.12l.06.28h0a4.76,4.76,0,0,0,1.08,2.17l.06.06.09.1c.11.11.21.21.32.3l0,0,.22.17.17.11.09.07a6.75,6.75,0,0,0,.65.34,5.62,5.62,0,0,0,1.45.42l0,.06-.07.12-.06.08-.06.09-.08.09-.05.07-.1.11,0,0-.13.12,0,0-.14.12h0l-.16.12h0a3.38,3.38,0,0,1-.73.38h0l-.2.06h0a3,3,0,0,1-.41.09H11.85l-.08,0-.13,0h-.07l-.14,0-.08,0-.11,0-.09,0L11,32.19l-.08,0-.1,0-.09,0L10.68,32,10.59,32l-.09-.05-.08-.07-.08-.06a.27.27,0,0,1-.08-.07l-.08-.06-.08-.08L10,31.5,10,31.41l-.06-.06-.08-.1-.05-.06-.07-.1,0-.06a.75.75,0,0,1-.07-.12l0-.06a5.28,5.28,0,0,0,2.68-1.16,4.2,4.2,0,0,0,.32-.29l.1-.11,0-.06a4.71,4.71,0,0,0,1.08-2.17h0l.06-.29s0-.07,0-.11l0-.24a1.64,1.64,0,0,0,0-.22c0-.06,0-.12,0-.19s0-.28,0-.44a1.56,1.56,0,0,0-.76-1.34ZM3.8,14.89a11.76,11.76,0,1,1,23.52,0V27.47h0L27,27.38h0l-.36-.07h0l-.31,0H20.85a1.69,1.69,0,0,1-.47-.89A14.78,14.78,0,0,0,22,25a11.93,11.93,0,0,0,2.31-2.88l.06-.11c.71-1.32,1.19-2.42,1.26-5.59A1.55,1.55,0,0,0,24.73,15c-2.08-1-6.05-5.38-7.8-7.56l-.14-.18a1.58,1.58,0,0,0-1.23-.59h0a1.55,1.55,0,0,0-1.22.59C12.67,9.36,8.53,14,6.39,15a1.56,1.56,0,0,0-.91,1.46c.07,3.17.55,4.27,1.27,5.59l0,.11a12.34,12.34,0,0,0,2.43,3l0,0,.13.12.15.13,0,0,.26.23,0,0c.28.23.58.46.88.67a.19.19,0,0,0,0,.07l0,.1,0,.12v0a1.43,1.43,0,0,1-.38.58H4.86l-.31,0h0l-.35.07h0l-.36.09h0V14.89ZM30.45,30V14.89a14.89,14.89,0,1,0-29.77,0V30A5.28,5.28,0,0,0,0,32.54V42.78a1.56,1.56,0,0,0,1.56,1.56h28a1.56,1.56,0,0,0,1.56-1.56V32.54A5.27,5.27,0,0,0,30.45,30Z" transform="translate(0)" style="fill:#dd2b57"/><path id="Fill-3" d="M76.88,41.22H52V34a2.16,2.16,0,0,1,2.16-2.16h6.27l2.71,4a1.57,1.57,0,0,0,1.3.69,1.55,1.55,0,0,0,1.29-.69l2.72-4h6.26A2.17,2.17,0,0,1,76.88,34ZM56.47,18.38V17.27l0-.07v0l.1-.22,0,0,.05-.09,0,0a.56.56,0,0,1,.05-.08l0,0a.41.41,0,0,1,0-.09l0,0,.06-.09,0-.05.09-.13h0a1.3,1.3,0,0,1,.1-.15l0,0,.08-.11.05,0,.07-.09.05-.06.08-.09.05-.06.09-.1a.12.12,0,0,0,0-.05,1.14,1.14,0,0,0,.11-.11l0,0a1.07,1.07,0,0,1,.16-.14s0,0,0,0l.12-.1.07,0,.11-.08.07-.05.11-.07.08,0,.12-.07.07-.05a.61.61,0,0,0,.14-.07l.07,0,.21-.09,0,0,.18-.07.09,0,.15-.05.09,0,.15,0,.1,0,.16,0,.1,0,.18,0h.36a9.07,9.07,0,0,0,5.86-1.91,5.27,5.27,0,0,0,.46.31c.47.29,1,.53,1.41.75l.36.18h0a4.91,4.91,0,0,1,.86.5l.3.28.09.08.19.18.1.1.15.15.11.12.12.12.12.13.09.1.12.15a.46.46,0,0,1,.07.07l.13.16,0,0,.14.18h0a5.64,5.64,0,0,1,.54.79.05.05,0,0,1,0,0l.11.16.05.07a.52.52,0,0,0,.1.11l0,0v1.38a7.91,7.91,0,0,1-5.06,7.42,1.57,1.57,0,0,0-1,1.46v2.1l0,.06-1.89,2.8-1.89-2.8a.21.21,0,0,0,0-.06v-2.1a1.57,1.57,0,0,0-1-1.46,7.91,7.91,0,0,1-5.06-7.42Zm-.11-5.89-.18.14-.09.08-.17.15-.09.08,0,0c-.08-.85-.13-1.83-.13-2.91a7.16,7.16,0,0,1,7.5-6.93,6,6,0,0,1,4.17,1.4,1.58,1.58,0,0,0,1.7.22c.73-.36,1.81.21,2.82,1.5h0A7.63,7.63,0,0,1,73,12.63l-.06-.05-.15-.16-.09-.09-.15-.14a.47.47,0,0,0-.1-.1l-.16-.15-.1-.09-.26-.24h0l-.14-.11-.06-.06h0a6.46,6.46,0,0,0-1-.61c-.24-.13-.49-.25-.74-.37a12.2,12.2,0,0,1-1.46-.8.78.78,0,0,1-.24-.26,1.57,1.57,0,0,0-2.65-.46c-.07.09-.15.17-.23.26s-.32.32-.48.46a6.41,6.41,0,0,1-.52.39,6.14,6.14,0,0,1-3.52.94l-.46,0h-.14l-.31,0-.16,0-.28,0-.14,0-.3.06-.11,0-.39.11-.06,0-.31.11-.12,0-.24.1-.12.06-.23.11-.11.06a2,2,0,0,0-.25.14l-.07,0-.3.19-.07,0-.22.16-.1.07ZM74.71,28.73H69.49v-.46a11.06,11.06,0,0,0,6.05-9.89V15c.8-2.36,1.73-6.94-1.23-10.71h0c-1.71-2.17-3.76-3.14-5.67-2.72A9.3,9.3,0,0,0,63.17,0,10.23,10.23,0,0,0,52.55,10.05a30.13,30.13,0,0,0,.79,7.19v1.14a11,11,0,0,0,6,9.89v.46H54.16A5.29,5.29,0,0,0,48.88,34v8.77a1.56,1.56,0,0,0,1.56,1.56h28A1.56,1.56,0,0,0,80,42.78V34a5.29,5.29,0,0,0-5.29-5.28Z" transform="translate(0)" style="fill:#dd2b57"/><path id="Fill-5" d="M68.12,78.13a1.4,1.4,0,0,0-.09-.29,2.29,2.29,0,0,0-.14-.27,1.59,1.59,0,0,0-.2-.24,1.55,1.55,0,0,0-.24-.19.87.87,0,0,0-.27-.14,1,1,0,0,0-.29-.09,1.57,1.57,0,0,0-.61,0A1,1,0,0,0,66,77a1,1,0,0,0-.27.14,1.55,1.55,0,0,0-.24.19,1.12,1.12,0,0,0-.19.24,1.43,1.43,0,0,0-.15.27,2.46,2.46,0,0,0-.09.29,1.63,1.63,0,0,0,0,.31,1.53,1.53,0,0,0,0,.3,2.46,2.46,0,0,0,.09.29,1.17,1.17,0,0,0,.15.27,1.12,1.12,0,0,0,.19.24,1.59,1.59,0,0,0,.24.2l.27.14a1.4,1.4,0,0,0,.29.09,1.55,1.55,0,0,0,.31,0,1.53,1.53,0,0,0,.3,0,1.4,1.4,0,0,0,.29-.09,1.71,1.71,0,0,0,.27-.14,1.73,1.73,0,0,0,.44-.44A1.71,1.71,0,0,0,68,79a1.4,1.4,0,0,0,.09-.29,1.53,1.53,0,0,0,0-.3,1.63,1.63,0,0,0,0-.31" transform="translate(0)" style="fill:#dd2b57"/><path id="Fill-7" d="M3.31,55.78H76.69V51H3.31Zm45.84,21.1H41.56v-9a1.56,1.56,0,0,0-3.12,0v9H30.85l4.93-18h8.44Zm29.1-29H1.75A1.56,1.56,0,0,0,.19,49.48v7.86a1.56,1.56,0,0,0,1.56,1.57H32.54l-4.94,18H13.41a1.56,1.56,0,1,0,0,3.12h47.7a1.56,1.56,0,1,0,0-3.12H52.4l-4.94-18H78.25a1.56,1.56,0,0,0,1.56-1.57V49.48a1.56,1.56,0,0,0-1.56-1.57Z" transform="translate(0)" style="fill:#dd2b57"/><path id="Fill-9" d="M41.53,62.1a1.71,1.71,0,0,0-.09-.3c0-.09-.09-.18-.14-.27a2.19,2.19,0,0,0-.43-.43L40.6,61l-.3-.09a1.52,1.52,0,0,0-.6,0l-.3.09-.27.14a2.19,2.19,0,0,0-.43.43,1.74,1.74,0,0,0-.14.27,1.71,1.71,0,0,0-.09.3,1.53,1.53,0,0,0,0,.3,1.71,1.71,0,0,0,0,.31,1.61,1.61,0,0,0,.09.29c0,.09.09.18.14.27a1.65,1.65,0,0,0,.43.43,1.74,1.74,0,0,0,.27.14l.3.09a1.51,1.51,0,0,0,.6,0l.3-.09a1.74,1.74,0,0,0,.27-.14,1.65,1.65,0,0,0,.43-.43c.05-.09.1-.18.14-.27a1.61,1.61,0,0,0,.09-.29,1.71,1.71,0,0,0,0-.31,1.53,1.53,0,0,0,0-.3" transform="translate(0)" style="fill:#dd2b57"/></g></g></svg>