<svg id="Réteg_1" data-name="Réteg 1" xmlns="http://www.w3.org/2000/svg" viewBox="0 0 80 74.97"><title>paper</title><g id="Pink-Icon-_-Paper" data-name="Pink-Icon-/-Paper"><g id="icon"><path id="Fill-1" d="M76.88,21.31H65.42v-10a2.44,2.44,0,0,1,0-.27v-.1a1,1,0,0,0,0-.17s0-.08,0-.12,0-.1,0-.15a.59.59,0,0,0,0-.13.36.36,0,0,0,0-.1,5.94,5.94,0,0,1,1.11-2.55h0l.06-.07c.09-.11.16-.21.24-.29a6,6,0,0,1,2.16-1.57h0l.19-.07.08,0,.16,0,.11,0,.13,0,.19,0,.09,0,.24-.05h.14l.29,0h.09l.27,0h.08a6,6,0,0,1,5.72,6Zm-14.37-12a.64.64,0,0,1,0,.07c0,.13-.05.25-.07.38l0,.22a.77.77,0,0,0,0,.15l0,.23c0,.05,0,.1,0,.15a2.28,2.28,0,0,0,0,.26.57.57,0,0,1,0,.13c0,.13,0,.25,0,.38V67.8a6.16,6.16,0,0,1-6,6.19H56a5.29,5.29,0,0,1-4.74-5c0-.08,0-.16,0-.24v0a5.42,5.42,0,0,1,5.42-5.42,1.56,1.56,0,0,0,0-3.12H11.06V11.28a6,6,0,0,1,6-6H64.53a9,9,0,0,0-2,4ZM13.6,70.14H48.25v0h0A8.35,8.35,0,0,0,50,74H8.49a5.13,5.13,0,0,1-3.74-1.46A5.29,5.29,0,0,1,3.12,68.7a5.43,5.43,0,0,1,5.42-5.42H50.07A8.53,8.53,0,0,0,48.3,67H13.6a1.56,1.56,0,1,0,0,3.12Zm57.62-68H17.06a9.13,9.13,0,0,0-9.12,9.12v48.9A8.53,8.53,0,0,0,2.57,74.79a8.24,8.24,0,0,0,5.75,2.33h48a9.32,9.32,0,0,0,9.08-9.32V24.44h13A1.56,1.56,0,0,0,80,22.87V11.28a9.1,9.1,0,0,0-8.78-9.12Z" transform="translate(0 -2.16)" style="fill:#dd2b57"/><path id="Fill-4" d="M9.41,68.27A1.4,1.4,0,0,0,9.32,68a2.29,2.29,0,0,0-.14-.27,1.59,1.59,0,0,0-.2-.24,1.56,1.56,0,0,0-1.41-.42,1.61,1.61,0,0,0-.29.09,1.16,1.16,0,0,0-.27.14l-.24.19a1.55,1.55,0,0,0-.19.24,1,1,0,0,0-.14.27,1.4,1.4,0,0,0-.09.29,1.63,1.63,0,0,0,0,.31,1.53,1.53,0,0,0,0,.3,1.71,1.71,0,0,0,.09.3.94.94,0,0,0,.14.26,1.55,1.55,0,0,0,.19.24l.24.2.27.14a1.51,1.51,0,0,0,.6.12,1.53,1.53,0,0,0,.3,0,1.71,1.71,0,0,0,.3-.09l.27-.14.23-.2a1.57,1.57,0,0,0,.46-1.1,1.63,1.63,0,0,0,0-.31" transform="translate(0 -2.16)" style="fill:#dd2b57"/><path id="Fill-6" d="M22,42.45H49.6V40.14H22ZM51.17,37H20.43a1.56,1.56,0,0,0-1.56,1.56V44a1.56,1.56,0,0,0,1.56,1.57H51.17A1.56,1.56,0,0,0,52.73,44V38.58A1.56,1.56,0,0,0,51.17,37Z" transform="translate(0 -2.16)" style="fill:#dd2b57"/><path id="Fill-8" d="M22,53.94H49.6V51.63H22ZM51.17,48.5H20.43a1.56,1.56,0,0,0-1.56,1.57V55.5a1.56,1.56,0,0,0,1.56,1.56H51.17a1.56,1.56,0,0,0,1.56-1.56V50.07a1.56,1.56,0,0,0-1.56-1.57Z" transform="translate(0 -2.16)" style="fill:#dd2b57"/></g></g></svg>