<svg id="Réteg_1" data-name="Réteg 1" xmlns="http://www.w3.org/2000/svg" viewBox="0 0 80 75"><title>payment-2</title><g id="Pink-Icon-_-Payment-2" data-name="Pink-Icon-/-Payment-2"><g id="icon"><path id="Fill-1" d="M62.88,71.75a1.56,1.56,0,1,0-1.57-1.56,1.56,1.56,0,0,0,1.57,1.56" transform="translate(-1 -3)" style="fill:#dd2b57"/><path id="Fill-3" d="M36.94,71.75a1.56,1.56,0,1,0-1.56-1.56,1.56,1.56,0,0,0,1.56,1.56" transform="translate(-1 -3)" style="fill:#dd2b57"/><path id="Fill-5" d="M72.26,45.57a1.55,1.55,0,0,1-1.51,1.18h-7.2l1.17-9.37h9.59ZM69.12,59.25a1.57,1.57,0,1,1,0,3.13H27.56A1.56,1.56,0,0,1,26,61.17L13.82,9.25H5.69a1.56,1.56,0,1,1,0-3.12h9.37a1.54,1.54,0,0,1,1.52,1.2l9.72,41.3h0l2.5,10.62ZM67.56,70.19a4.69,4.69,0,1,1-4.69-4.69,4.7,4.7,0,0,1,4.69,4.69Zm-25.94,0a4.69,4.69,0,1,1-4.68-4.69,4.69,4.69,0,0,1,4.68,4.69ZM34.46,24.88l1.18,9.37H26.13l-2.21-9.37ZM29.07,46.75l-2.21-9.37H36l1.17,9.37Zm27.55-9.37h5L60.4,46.75H51.94V42.06a1.57,1.57,0,0,0-3.13,0v4.69H40.35l-1.17-9.37h4.94a1.57,1.57,0,1,0,0-3.13H38.79l-1.18-9.37h11.2v4.68a1.57,1.57,0,1,0,3.13,0V24.88h11.2L62,34.25H56.62a1.57,1.57,0,0,0,0,3.13Zm18.47-3.13h-10l1.18-9.37H77.44Zm5.58-11.9a1.56,1.56,0,0,0-1.23-.6H23.19L19.63,6.61A4.69,4.69,0,0,0,15.06,3H5.69a4.69,4.69,0,0,0,0,9.38h5.66L23,61.89a4.68,4.68,0,0,0,4.56,3.61h3.13a7.82,7.82,0,1,0,12.49,0H56.63a7.82,7.82,0,1,0,12.49,0h0a4.69,4.69,0,1,0,0-9.37H31.28L29.8,49.88h41a4.69,4.69,0,0,0,4.55-3.56L81,23.69a1.53,1.53,0,0,0-.28-1.34Z" transform="translate(-1 -3)" style="fill:#dd2b57"/><path id="Fill-8" d="M50.38,34.25a1.56,1.56,0,1,0,1.56,1.56,1.56,1.56,0,0,0-1.56-1.56" transform="translate(-1 -3)" style="fill:#dd2b57"/></g></g></svg>