<svg id="Réteg_1" data-name="Réteg 1" xmlns="http://www.w3.org/2000/svg" viewBox="0 0 64.06 80"><title>payment-1</title><g id="Pink-Icon-_-Payment-1" data-name="Pink-Icon-/-Payment-1"><g id="icon"><path id="Fill-1" d="M28.31,32.19a1.56,1.56,0,0,0-1.56,1.54v0a1.57,1.57,0,0,0,3.13,0v0a1.57,1.57,0,0,0-1.57-1.54" transform="translate(-8 0)" style="fill:#dd2b57"/><path id="Fill-3" d="M68.94,58.13a18.75,18.75,0,0,1-37,4.29v0h0a18.91,18.91,0,0,1,.12-9,18.75,18.75,0,0,1,36.89,4.77ZM15.55,59.5c-3.5-1.17-4.43-2.43-4.43-2.94V51.08c3.8,2.28,10.52,3.45,17.19,3.45h.3a21.59,21.59,0,0,0-.3,3.6,23.26,23.26,0,0,0,.22,3.12h-.22A42,42,0,0,1,15.55,59.5Zm0-54.62A42,42,0,0,1,28.31,3.13,42,42,0,0,1,41.08,4.88C44.58,6,45.5,7.31,45.5,7.81s-.92,1.77-4.42,2.94A42,42,0,0,1,28.31,12.5a42,42,0,0,1-12.76-1.75c-3.5-1.17-4.43-2.43-4.43-2.94S12.05,6,15.55,4.88Zm30,12.83c0,.53-1.07,1.78-4.54,2.92a42.23,42.23,0,0,1-12.66,1.71,42,42,0,0,1-12.76-1.75c-3.5-1.16-4.43-2.43-4.43-2.93V12.18c3.8,2.27,10.52,3.45,17.19,3.45s13.41-1.18,17.2-3.45ZM36.75,40.87a50,50,0,0,1-8.44.69,42,42,0,0,1-12.76-1.75c-3.5-1.16-4.43-2.43-4.43-2.93v-5a16.6,16.6,0,0,0,2.77,1.29A38.74,38.74,0,0,0,22.07,35a1.57,1.57,0,0,0,.18-3.12c-.5-.08-6-.63-9.37-2.55a3.49,3.49,0,0,1-1.74-1.65c0-.22,0,.21,0-5.62,3.8,2.28,10.52,3.45,17.19,3.45A45.66,45.66,0,0,0,41.94,23.6,17.2,17.2,0,0,0,45.51,22V27.6a1.84,1.84,0,0,1-.53.79s-2.44,2.52-10.59,3.45h0A1.57,1.57,0,0,0,34.55,35a30.9,30.9,0,0,0,11-3.07v4.87a21.76,21.76,0,0,0-8.75,4.11ZM29.37,51.4H28.31a42.33,42.33,0,0,1-12.76-1.75c-3.5-1.17-4.43-2.44-4.43-2.94V41.24c3.8,2.28,10.52,3.45,17.19,3.45,1.62,0,3.23-.07,4.79-.2a21.85,21.85,0,0,0-3.73,6.91ZM28.31,0C18.22,0,8,2.68,8,7.81V56.56c0,5.13,10.22,7.82,20.31,7.82h.91a21.88,21.88,0,1,0,21-28.12c-.53,0-1,0-1.58.06,0-1,0-16.51,0-18.53v-10h0C48.62,2.68,38.41,0,28.31,0Z" transform="translate(-8 0)" style="fill:#dd2b57"/><path id="Fill-6" d="M45.5,55a4.7,4.7,0,0,0,4.69,4.69,1.56,1.56,0,0,1,0,3.12,2.83,2.83,0,0,1-2-1.18,1.56,1.56,0,0,0-2.39,2,6.4,6.4,0,0,0,2.85,2V67.5a1.57,1.57,0,0,0,3.13,0V65.67a4.69,4.69,0,0,0-1.56-9.11,1.56,1.56,0,1,1,0-3.12,2.52,2.52,0,0,1,1.69.81A1.56,1.56,0,1,0,54.05,52a6.06,6.06,0,0,0-2.3-1.44V48.75a1.57,1.57,0,0,0-3.13,0v1.83A4.71,4.71,0,0,0,45.5,55" transform="translate(-8 0)" style="fill:#dd2b57"/></g></g></svg>