<svg id="Réteg_1" data-name="Réteg 1" xmlns="http://www.w3.org/2000/svg" viewBox="0 0 80 75"><title>payment-3</title><g id="Pink-Icon-_-Payment-3" data-name="Pink-Icon-/-Payment-3"><g id="icon"><path id="Fill-1" d="M40,56.13a1.56,1.56,0,1,0,1.56,1.56A1.56,1.56,0,0,0,40,56.13" transform="translate(0 -3)" style="fill:#dd2b57"/><path id="Fill-3" d="M76.88,73.31a1.58,1.58,0,0,1-1.57,1.57H15a1.57,1.57,0,0,1-1.56-1.57V35.81A1.56,1.56,0,0,1,15,34.25H75.31a1.57,1.57,0,0,1,1.57,1.56ZM4.69,46.75a1.57,1.57,0,0,1-1.57-1.56V24.88H66.56v6.25H15a4.69,4.69,0,0,0-4.69,4.68V46.75Zm0-40.62H65a1.56,1.56,0,0,1,1.56,1.56v4.69H3.12V7.69A1.57,1.57,0,0,1,4.69,6.13ZM3.12,21.75H66.56V15.5H3.12Zm72.19,9.38H69.69V7.69A4.7,4.7,0,0,0,65,3H4.69A4.69,4.69,0,0,0,0,7.69v37.5a4.7,4.7,0,0,0,4.69,4.69h5.62V73.31A4.7,4.7,0,0,0,15,78H75.31A4.69,4.69,0,0,0,80,73.31V35.81a4.69,4.69,0,0,0-4.69-4.68Z" transform="translate(0 -3)" style="fill:#dd2b57"/><path id="Fill-6" d="M61.88,53a4.69,4.69,0,0,1-2.61-.79,7.81,7.81,0,0,0,0-7.79A4.69,4.69,0,1,1,61.88,53M47.81,48.31a4.69,4.69,0,0,1,8.2-3.1h0a4.69,4.69,0,1,1-8.2,3.1M61.88,40.5a7.78,7.78,0,0,0-4.69,1.57,7.82,7.82,0,1,0,0,12.49A7.81,7.81,0,1,0,61.88,40.5" transform="translate(0 -3)" style="fill:#dd2b57"/><path id="Fill-8" d="M27.5,65.5H21.25a1.57,1.57,0,0,0,0,3.13H27.5a1.57,1.57,0,0,0,0-3.13" transform="translate(0 -3)" style="fill:#dd2b57"/><path id="Fill-10" d="M40,65.5H33.75a1.57,1.57,0,0,0,0,3.13H40a1.57,1.57,0,0,0,0-3.13" transform="translate(0 -3)" style="fill:#dd2b57"/><path id="Fill-12" d="M52.5,65.5H46.25a1.57,1.57,0,0,0,0,3.13H52.5a1.57,1.57,0,0,0,0-3.13" transform="translate(0 -3)" style="fill:#dd2b57"/><path id="Fill-14" d="M65,65.5H58.75a1.57,1.57,0,0,0,0,3.13H65a1.57,1.57,0,0,0,0-3.13" transform="translate(0 -3)" style="fill:#dd2b57"/><path id="Fill-16" d="M21.25,59.25h12.5a1.56,1.56,0,1,0,0-3.12H21.25a1.56,1.56,0,0,0,0,3.12" transform="translate(0 -3)" style="fill:#dd2b57"/></g></g></svg>