<svg id="Réteg_1" data-name="Réteg 1" xmlns="http://www.w3.org/2000/svg" viewBox="0 0 80 73.88"><title>platform</title><g id="Pink-Icon-_-Platform" data-name="Pink-Icon-/-Platform"><g id="icon"><path id="Fill-1" d="M76.81,46.35H72.08V39.13a1.59,1.59,0,0,0-1.59-1.59H49.8a1.59,1.59,0,0,0-1.59,1.59v7.22h-45V6.19H76.81ZM72.08,56.61h4.73V49.54H72.08ZM68.9,48V66.68H51.4v-26H68.9ZM51.4,73.7H68.9V69.87H51.4ZM3.19,56.61h45V49.54h-45ZM41.59,64h6.62V59.79H41.59ZM78.41,3H1.59A1.59,1.59,0,0,0,0,4.59V58.2a1.59,1.59,0,0,0,1.59,1.59H38.41V64H26.6a1.6,1.6,0,1,0,0,3.19H48.21v8.12a1.59,1.59,0,0,0,1.59,1.59H70.49a1.59,1.59,0,0,0,1.59-1.59V59.79h6.33A1.59,1.59,0,0,0,80,58.2V4.59A1.59,1.59,0,0,0,78.41,3Z" transform="translate(0 -3)" style="fill:#dd2b57"/><path id="Fill-3" d="M7,11.4H50.16a1.59,1.59,0,1,0,0-3.18H7A1.59,1.59,0,0,0,7,11.4" transform="translate(0 -3)" style="fill:#dd2b57"/><path id="Fill-5" d="M56.46,11.4H58.8a1.59,1.59,0,1,0,0-3.18H56.46a1.59,1.59,0,0,0,0,3.18" transform="translate(0 -3)" style="fill:#dd2b57"/><path id="Fill-7" d="M55.38,64.29A1.59,1.59,0,0,0,57,62.7V52.44a1.59,1.59,0,0,0-3.18,0V62.7a1.59,1.59,0,0,0,1.59,1.59" transform="translate(0 -3)" style="fill:#dd2b57"/><path id="Fill-9" d="M55.38,48.46A1.59,1.59,0,0,0,57,46.87V44.53a1.59,1.59,0,1,0-3.18,0v2.34a1.59,1.59,0,0,0,1.59,1.59" transform="translate(0 -3)" style="fill:#dd2b57"/></g></g></svg>