<svg id="Réteg_1" data-name="Réteg 1" xmlns="http://www.w3.org/2000/svg" viewBox="0 0 71.99 71.93"><title>server-1</title><g id="Pink-Icon-_-Server-1" data-name="Pink-Icon-/-Server-1"><g id="icon"><path id="Fill-1" d="M26.19,39.68v0a13.81,13.81,0,0,1,8.92-12.43,1.56,1.56,0,0,0,.92-2,1.58,1.58,0,0,0-2-.92A17,17,0,0,0,23.21,37.66h0A15.29,15.29,0,0,0,23,39.79a17.41,17.41,0,0,0,.16,2.79h0A17,17,0,0,0,33.94,56a1.58,1.58,0,0,0,1.12-3,13.62,13.62,0,0,1-4.83-3.14,13.77,13.77,0,0,1-4-10v-.19" transform="translate(-4 -4.16)" style="fill:#dd2b57"/><path id="Fill-3" d="M72.84,43.18l-6.9,1.72a1.56,1.56,0,0,0-1.08.92l-3.23,7.8A1.58,1.58,0,0,0,61.74,55l3.66,6.09L61,65.5l-6.09-3.67a1.59,1.59,0,0,0-1.41-.1L45.72,65A1.56,1.56,0,0,0,44.8,66l-1.72,6.89H36.91L35.19,66A1.56,1.56,0,0,0,34.26,65l-7.8-3.23a1.59,1.59,0,0,0-1.41.1L19,65.5l-4.36-4.37L18.25,55a1.58,1.58,0,0,0,.11-1.42l-3.24-7.8a1.57,1.57,0,0,0-1.07-.92l-6.9-1.72V37.66h0v-.59l6.9-1.72a1.58,1.58,0,0,0,1.07-.93l3.24-7.8a1.58,1.58,0,0,0-.11-1.42l-3.66-6.09L19,14.75l6.1,3.66a1.56,1.56,0,0,0,1.41.11l7.8-3.24a1.58,1.58,0,0,0,.93-1.07l1.72-6.9h6.17l1.72,6.9a1.57,1.57,0,0,0,.92,1.07l7.8,3.24a1.58,1.58,0,0,0,1.42-.11L61,14.75l4.37,4.36L61.73,25.2a1.61,1.61,0,0,0-.1,1.42l3.23,7.8a1.58,1.58,0,0,0,1.08.93l6.9,1.72v5.51h0Zm2-8.87-7.32-1.83-2.63-6.33,3.89-6.47a1.59,1.59,0,0,0-.23-1.93l-6.11-6.1a1.59,1.59,0,0,0-1.93-.24L54,15.3l-6.34-2.62L45.84,5.35a1.58,1.58,0,0,0-1.53-1.19H35.68a1.57,1.57,0,0,0-1.53,1.19l-1.83,7.33L26,15.3l-6.47-3.89a1.57,1.57,0,0,0-1.92.24l-6.11,6.1a1.59,1.59,0,0,0-.24,1.93l3.89,6.47-2.62,6.33L5.19,34.31A1.56,1.56,0,0,0,4,35.83v8.58a1.58,1.58,0,0,0,1.19,1.53l7.33,1.82,2.62,6.34-3.88,6.46a1.57,1.57,0,0,0,.23,1.93l6.11,6.1a1.56,1.56,0,0,0,1.92.24L26,64.94l6.33,2.63,1.83,7.32a1.57,1.57,0,0,0,1.53,1.2h8.63a1.59,1.59,0,0,0,1.53-1.2l1.82-7.32L54,64.94l6.46,3.89a1.57,1.57,0,0,0,1.93-.24l6.11-6.1a1.57,1.57,0,0,0,.23-1.93L64.84,54.1l2.63-6.34,7.32-1.82A1.59,1.59,0,0,0,76,44.41V35.83a1.57,1.57,0,0,0-1.2-1.52Z" transform="translate(-4 -4.16)" style="fill:#dd2b57"/><path id="Fill-6" d="M56.78,37.66h0A16.94,16.94,0,0,0,46.05,24.3a1.57,1.57,0,1,0-1.13,2.94A13.82,13.82,0,0,1,53.8,40.37v.22a13.83,13.83,0,0,1-4,9.27A13.69,13.69,0,0,1,44.87,53,1.58,1.58,0,1,0,46,56,17,17,0,0,0,56.77,42.58h0A17,17,0,0,0,57,40.45a16.4,16.4,0,0,0-.17-2.79" transform="translate(-4 -4.16)" style="fill:#dd2b57"/></g></g></svg>