<svg id="Réteg_1" data-name="Réteg 1" xmlns="http://www.w3.org/2000/svg" viewBox="0 0 80 80"><title>server-2</title><g id="Pink-Icon-_-Server-2" data-name="Pink-Icon-/-Server-2"><g id="icon"><path id="Fill-1" d="M76.88,22.61,57.39,3.12H76.88ZM78.44,0H53.61a1.56,1.56,0,0,0-1.1,2.67l5.85,5.84L38.68,28.19,20.5,10a1.56,1.56,0,0,0-2.21,0L.46,27.85a1.56,1.56,0,0,0,0,2.21,1.6,1.6,0,0,0,1.11.46,1.56,1.56,0,0,0,1.1-.46L19.4,13.33,41.16,35.1a1.56,1.56,0,0,0,1.11.46,1.52,1.52,0,0,0,1.1-.46,1.56,1.56,0,0,0,0-2.21L40.89,30.4,60.57,10.72l8.72,8.73L53.43,35.31a1.56,1.56,0,0,0,0,2.21,1.59,1.59,0,0,0,1.11.45,1.55,1.55,0,0,0,1.1-.45L71.5,21.66l5.83,5.83a1.57,1.57,0,0,0,1.11.46,1.61,1.61,0,0,0,.6-.12,1.56,1.56,0,0,0,1-1.44V1.56A1.56,1.56,0,0,0,78.44,0Z" transform="translate(0 0)" style="fill:#dd2b57"/><path id="Fill-4" d="M51.77,39.18a1.56,1.56,0,1,0-2.2,2.2,1.57,1.57,0,0,0,1.1.46,1.56,1.56,0,0,0,1.1-2.66" transform="translate(0 0)" style="fill:#dd2b57"/><path id="Fill-6" d="M30.08,41.46,21.61,33l2.52-2.52a1.56,1.56,0,0,0-2.21-2.21L.46,49.72a1.56,1.56,0,0,0,0,2.21,1.6,1.6,0,0,0,1.11.46,1.56,1.56,0,0,0,1.1-.46L19.4,35.2l8.47,8.47a1.52,1.52,0,0,0,1.1.46,1.57,1.57,0,0,0,1.11-2.67" transform="translate(0 0)" style="fill:#dd2b57"/><path id="Fill-8" d="M40.07,57.33H40a1.56,1.56,0,0,0,0,3.12h.06a1.56,1.56,0,0,0,0-3.12" transform="translate(0 0)" style="fill:#dd2b57"/><path id="Fill-10" d="M72.57,76.88h-16A16.84,16.84,0,0,0,46,58.43a1.56,1.56,0,0,0-1.11,2.92,13.73,13.73,0,0,1,8.54,15.53H26.57a13.73,13.73,0,0,1,3.74-12.41,13.48,13.48,0,0,1,4.85-3.14,1.56,1.56,0,0,0-1.1-2.92,16.58,16.58,0,0,0-6,3.85,16.81,16.81,0,0,0-4.7,14.62h-16V71.09l6.84-1.7a1.57,1.57,0,0,0,1.07-.92l3.2-7.74a1.57,1.57,0,0,0-.1-1.4l-3.63-6L19.13,49l6.05,3.63a1.54,1.54,0,0,0,1.4.11l7.74-3.21a1.57,1.57,0,0,0,.92-1.07l1.7-6.84h6.12l1.7,6.84a1.55,1.55,0,0,0,.92,1.07l7.74,3.21a1.54,1.54,0,0,0,1.4-.11l6-3.63,4.32,4.33-3.63,6a1.57,1.57,0,0,0-.1,1.4l3.2,7.74a1.57,1.57,0,0,0,1.07.92l6.84,1.7Zm5.87,0H75.7v-7a1.56,1.56,0,0,0-1.19-1.51l-7.26-1.81-2.6-6.28,3.85-6.42a1.57,1.57,0,0,0-.23-1.91l-6.06-6a1.56,1.56,0,0,0-1.91-.24l-6.41,3.86L47.61,46.9,45.8,39.64a1.57,1.57,0,0,0-1.52-1.18H35.72a1.57,1.57,0,0,0-1.52,1.18L32.39,46.9l-6.28,2.61L19.7,45.65a1.56,1.56,0,0,0-1.91.24l-6.06,6a1.57,1.57,0,0,0-.23,1.91l3.85,6.42-2.6,6.28L5.49,68.36A1.56,1.56,0,0,0,4.3,69.87v7H1.56a1.56,1.56,0,0,0,0,3.12H78.44a1.56,1.56,0,0,0,0-3.12Z" transform="translate(0 0)" style="fill:#dd2b57"/></g></g></svg>