<svg id="Réteg_1" data-name="Réteg 1" xmlns="http://www.w3.org/2000/svg" viewBox="0 0 242.13 186.25"><defs><style>.cls-1{fill:#dd2b57;}.cls-2{fill:#8f1c38;}.cls-3{fill:#c21d46;}.cls-4{fill:#a62041;}</style></defs><title>sls-logo</title><g id="blackandwhite_onewhite" data-name="blackandwhite onewhite"><rect class="cls-1" x="160.61" y="85.96" width="43.9" height="43.9" transform="translate(-37.76 83.83) rotate(-45)"/><rect class="cls-1" x="204.06" y="117" width="43.9" height="43.9" transform="translate(-46.99 123.65) rotate(-45)"/><rect class="cls-2" x="173.03" y="210.13" width="43.9" height="43.9" transform="translate(-121.93 128.98) rotate(-45)"/><rect class="cls-3" x="129.56" y="117" width="43.9" height="43.9" transform="translate(-68.81 70.97) rotate(-45)"/><rect class="cls-3" x="173.02" y="148.04" width="43.9" height="43.9" transform="translate(-78.03 110.79) rotate(-45)"/><rect class="cls-4" x="204.07" y="179.09" width="43.9" height="43.9" transform="translate(-90.89 141.84) rotate(-45)"/><rect class="cls-1" x="55.07" y="117.01" width="43.9" height="43.9" transform="translate(-90.63 18.29) rotate(-45)"/><rect class="cls-2" x="24.03" y="210.13" width="43.9" height="43.9" transform="translate(-165.57 23.62) rotate(-45)"/><rect class="cls-3" x="24.03" y="148.04" width="43.9" height="43.9" transform="translate(-121.67 5.43) rotate(-45)"/><rect class="cls-4" x="55.07" y="179.09" width="43.9" height="43.9" transform="translate(-134.53 36.48) rotate(-45)"/><rect class="cls-4" x="98.52" y="148.04" width="43.9" height="43.9" transform="translate(-99.85 58.11) rotate(-45)"/><rect class="cls-2" x="129.57" y="179.09" width="43.9" height="43.9" transform="translate(-112.71 89.16) rotate(-45)"/></g></svg>