<svg id="Réteg_1" data-name="Réteg 1" xmlns="http://www.w3.org/2000/svg" viewBox="0 0 80 69.06"><title>stream-4</title><g id="Pink-Icon-_-Stream-4" data-name="Pink-Icon-/-Stream-4"><g id="icon"><path id="Fill-1" d="M50.3,18.54h-2a1.6,1.6,0,0,0,0,3.19h2a1.6,1.6,0,1,0,0-3.19" transform="translate(0 -5.16)" style="fill:#dd2b57"/><path id="Fill-3" d="M66.13,18.54H55.81a1.6,1.6,0,0,0,0,3.19H66.13a1.6,1.6,0,0,0,0-3.19" transform="translate(0 -5.16)" style="fill:#dd2b57"/><path id="Fill-5" d="M76.81,31.89H10.26V27.48H76.81Zm0,39.14H10.26V35.08H76.81ZM7.07,25.88v26H3.19v-36H69.74v8.35H8.66a1.59,1.59,0,0,0-1.59,1.59ZM3.19,12.76H69.74V8.35H3.19ZM78.41,24.29H72.93V6.75a1.59,1.59,0,0,0-1.59-1.59H1.59A1.59,1.59,0,0,0,0,6.75V53.49a1.59,1.59,0,0,0,1.59,1.59H7.07V72.62a1.6,1.6,0,0,0,1.59,1.6H78.41A1.6,1.6,0,0,0,80,72.62V25.88a1.59,1.59,0,0,0-1.59-1.59Z" transform="translate(0 -5.16)" style="fill:#dd2b57"/><path id="Fill-8" d="M55.4,40.86H73.2a1.59,1.59,0,0,0,0-3.18H55.4a1.59,1.59,0,1,0,0,3.18" transform="translate(0 -5.16)" style="fill:#dd2b57"/><path id="Fill-10" d="M55.4,48.45H73.2a1.6,1.6,0,0,0,0-3.19H55.4a1.6,1.6,0,0,0,0,3.19" transform="translate(0 -5.16)" style="fill:#dd2b57"/><path id="Fill-12" d="M55.4,56.13h1.74a1.6,1.6,0,0,0,0-3.19H55.4a1.6,1.6,0,0,0,0,3.19" transform="translate(0 -5.16)" style="fill:#dd2b57"/><path id="Fill-14" d="M73.2,52.94H62.63a1.6,1.6,0,0,0,0,3.19H73.2a1.6,1.6,0,0,0,0-3.19" transform="translate(0 -5.16)" style="fill:#dd2b57"/><path id="Fill-16" d="M16.41,67.22H47.65a1.59,1.59,0,0,0,0-3.18H18V40.69a1.59,1.59,0,0,0-3.18,0V65.63a1.59,1.59,0,0,0,1.59,1.59" transform="translate(0 -5.16)" style="fill:#dd2b57"/></g></g></svg>