<svg id="Réteg_1" data-name="Réteg 1" xmlns="http://www.w3.org/2000/svg" viewBox="0 0 80 80"><title>stream-2</title><g id="Pink-Icon-_-Stream-2" data-name="Pink-Icon-/-Stream-2"><g id="icon"><path id="Fill-1" d="M23.2,0H1.63A1.63,1.63,0,0,0,0,1.63V23.2a1.64,1.64,0,1,0,3.27,0V3.27H23.2A1.64,1.64,0,1,0,23.2,0" transform="translate(0 0)" style="fill:#dd2b57"/><path id="Fill-4" d="M78.37,55.16a1.64,1.64,0,0,0-1.64,1.64V76.73H56.8a1.64,1.64,0,1,0,0,3.27H78.37A1.63,1.63,0,0,0,80,78.37V56.8a1.63,1.63,0,0,0-1.63-1.64" transform="translate(0 0)" style="fill:#dd2b57"/><path id="Fill-7" d="M78.37,0H62.81a1.64,1.64,0,0,0,0,3.27H76.73V23.2a1.64,1.64,0,1,0,3.27,0V1.63A1.63,1.63,0,0,0,78.37,0" transform="translate(0 0)" style="fill:#dd2b57"/><path id="Fill-10" d="M57.53,0H56.8a1.64,1.64,0,1,0,0,3.27h.73a1.64,1.64,0,0,0,0-3.27" transform="translate(0 0)" style="fill:#dd2b57"/><path id="Fill-13" d="M17.19,76.73H3.27V56.8A1.64,1.64,0,1,0,0,56.8V78.37A1.63,1.63,0,0,0,1.63,80H17.19a1.64,1.64,0,0,0,0-3.27" transform="translate(0 0)" style="fill:#dd2b57"/><path id="Fill-16" d="M23.2,76.73h-.73a1.64,1.64,0,0,0,0,3.27h.73a1.64,1.64,0,1,0,0-3.27" transform="translate(0 0)" style="fill:#dd2b57"/><path id="Fill-18" d="M40,41.87h0A14.09,14.09,0,0,1,26,29.32a17.38,17.38,0,0,0,14-9.94,17.4,17.4,0,0,0,14,9.94A14.13,14.13,0,0,1,40,41.87M38.26,13.78A14.12,14.12,0,0,1,26,26,14.14,14.14,0,0,1,38.26,13.78M50,17.8A14,14,0,0,1,54,26,14.12,14.12,0,0,1,41.75,13.78a14.06,14.06,0,0,1,8.23,4m2.3-2.3A17.2,17.2,0,0,0,40,10.41h0A17.38,17.38,0,0,0,22.64,27.77h0A17.36,17.36,0,0,0,40,45.14h0A17.36,17.36,0,0,0,52.28,15.5" transform="translate(0 0)" style="fill:#dd2b57"/><path id="Fill-20" d="M62.52,65.8h-45v-.65a14.71,14.71,0,0,1,14.7-14.69H47.83a14.72,14.72,0,0,1,14.69,14.7ZM47.83,47.19H32.2a18,18,0,0,0-18,18v2.28a1.65,1.65,0,0,0,1.64,1.64H64.15a1.64,1.64,0,0,0,1.64-1.64V65.16a18,18,0,0,0-18-18Z" transform="translate(0 0)" style="fill:#dd2b57"/><path id="Fill-22" d="M40.89,61.22h-.73a1.64,1.64,0,0,0,0,3.27h.73a1.64,1.64,0,1,0,0-3.27" transform="translate(0 0)" style="fill:#dd2b57"/><path id="Fill-24" d="M34.88,61.22H21.26a1.64,1.64,0,0,0,0,3.27H34.88a1.64,1.64,0,0,0,0-3.27" transform="translate(0 0)" style="fill:#dd2b57"/></g></g></svg>