<svg id="Réteg_1" data-name="Réteg 1" xmlns="http://www.w3.org/2000/svg" viewBox="0 0 65.96 65.96"><title>stream-3</title><g id="Pink-Icon-_-Stream-3" data-name="Pink-Icon-/-Stream-3"><g id="icon"><path id="Fill-3" d="M69.71,61.48H62.86v-.37a16,16,0,0,0-16-16H33.13a16,16,0,0,0-16,16v.38H10.29V10.28H69.71v51.2Zm-10.12,0H20.41V61.1A12.74,12.74,0,0,1,33.13,48.38H46.87A12.72,12.72,0,0,1,59.59,61.11ZM71.35,7H8.65A1.63,1.63,0,0,0,7,8.65V63.11a1.63,1.63,0,0,0,1.63,1.63h62.7A1.63,1.63,0,0,0,73,63.11V8.65A1.63,1.63,0,0,0,71.35,7Z" transform="translate(-7.02 -7.02)" style="fill:#dd2b57"/><path id="Fill-4" d="M30.52,69.71h-.73a1.64,1.64,0,0,0,0,3.27h.73a1.64,1.64,0,1,0,0-3.27" transform="translate(-7.02 -7.02)" style="fill:#dd2b57"/><path id="Fill-5" d="M24.51,69.71H8.65a1.64,1.64,0,0,0,0,3.27H24.51a1.64,1.64,0,0,0,0-3.27" transform="translate(-7.02 -7.02)" style="fill:#dd2b57"/><path id="Fill-6" d="M40,40.29h0A12.09,12.09,0,0,1,28,29.75a15.38,15.38,0,0,0,12-8.37,15.41,15.41,0,0,0,12,8.37A12.09,12.09,0,0,1,40,40.29m-1.76-24A12.11,12.11,0,0,1,28.05,26.45,12.1,12.1,0,0,1,38.24,16.26m10.3,3.41A12,12,0,0,1,52,26.45,12.11,12.11,0,0,1,41.76,16.26a12,12,0,0,1,6.78,3.41m2.31-2.31A15.22,15.22,0,0,0,40,12.87h0A15.36,15.36,0,0,0,24.65,28.21h0A15.37,15.37,0,0,0,40,43.56h0a15.34,15.34,0,0,0,10.85-26.2" transform="translate(-7.02 -7.02)" style="fill:#dd2b57"/></g></g></svg>