<svg id="Réteg_1" data-name="Réteg 1" xmlns="http://www.w3.org/2000/svg" viewBox="0 0 65.1 80"><title>team</title><g id="Pink-Icon-_-Team" data-name="Pink-Icon-/-Team"><g id="icon"><path id="Fill-1" d="M57.34,76.31l-6.52-8.93,11.25-7.33L68.33,69ZM44.43,58.62,41.13,32.5c0-.11,0-.23,0-.34v0A3.31,3.31,0,0,1,43.5,29h.06a3.78,3.78,0,0,1,.46-.1h0a3.28,3.28,0,0,1,3.66,2.86l1.21,9.75a1.56,1.56,0,1,0,3.1-.39l-.15-1.25h0l-1.06-8.5a6.34,6.34,0,0,0-2.42-4.26l0,0a6.26,6.26,0,0,0-1.71-1,6.6,6.6,0,0,0-2.07-.39l-.41-5.23a.37.37,0,0,0,0-.11L42,6a2.47,2.47,0,0,1,2.46-2.85A2.46,2.46,0,0,1,46.8,4.84l8.47,26c.3,1.15.55,2.34.75,3.52l3.49,21.52a2,2,0,0,0,.21.56l.64,1L49,64.85ZM39.54,27.93A6.48,6.48,0,0,0,37.6,26.4L38,20.76l1.51-10,1.5,10,.44,5.64a6.49,6.49,0,0,0-2,1.53ZM38,32.52l-3.29,26.1-4.55,6.23L18.74,57.44l.63-1a1.53,1.53,0,0,0,.21-.56l3.5-21.52c.19-1.18.44-2.37.74-3.52L32.29,4.84A2.49,2.49,0,0,1,36.54,4a2.46,2.46,0,0,1,.58,2L34.94,20.35s0,.07,0,.11l-.41,5.23a6.45,6.45,0,0,0-6.22,5.62l-1.05,8.5h0l-.16,1.25a1.56,1.56,0,1,0,3.1.39l1.22-9.76a3.21,3.21,0,0,1,1.24-2.18h0a3.3,3.3,0,0,1,2.41-.66h0a3.94,3.94,0,0,1,.47.1h.05A3.31,3.31,0,0,1,38,32.52ZM21.76,76.31,10.76,69,17,60.05l11.24,7.33Zm50.05-7.82-8-11.42-1.24-2L59.1,33.81c-.21-1.3-.48-2.59-.81-3.86l0-.09-8.49-26A5.61,5.61,0,0,0,40.18,2a6.16,6.16,0,0,0-.63.91A5.63,5.63,0,0,0,34.66,0a5.61,5.61,0,0,0-5.34,3.87l-8.48,26,0,.09c-.33,1.27-.6,2.56-.81,3.86L16.55,55l-1.24,2-8,11.42a1.58,1.58,0,0,0,.42,2.2l13.57,9a1.57,1.57,0,0,0,2.13-.38l8.37-11.47h0l5.66-7.75a1.47,1.47,0,0,0,.29-.72l1.83-14.5,1.83,14.5a1.56,1.56,0,0,0,.28.72l5.67,7.75h0l8.36,11.47A1.58,1.58,0,0,0,57,80a1.5,1.5,0,0,0,.86-.26l13.58-9a1.59,1.59,0,0,0,.67-1,1.55,1.55,0,0,0-.26-1.18Z" transform="translate(-7 0)" style="fill:#dd2b57"/><path id="Fill-4" d="M52.68,46.53a1.4,1.4,0,0,0-.09-.29c0-.09-.09-.18-.14-.27a2.31,2.31,0,0,0-.2-.24,2.11,2.11,0,0,0-.23-.19,1,1,0,0,0-.28-.14,1.4,1.4,0,0,0-.29-.09,1.57,1.57,0,0,0-.61,0,1.4,1.4,0,0,0-.29.09,1.16,1.16,0,0,0-.27.14,1.55,1.55,0,0,0-.24.19,2.23,2.23,0,0,0-.19.24,1.82,1.82,0,0,0-.15.27,2.45,2.45,0,0,0-.08.29,1.09,1.09,0,0,0,0,.31,1,1,0,0,0,0,.3c0,.1.05.2.08.3a1.35,1.35,0,0,0,.15.26,1.55,1.55,0,0,0,.19.24,1.5,1.5,0,0,0,.24.2l.27.14a1.4,1.4,0,0,0,.29.09,1.55,1.55,0,0,0,.31,0,1.53,1.53,0,0,0,.3,0,1.4,1.4,0,0,0,.29-.09l.28-.14a1.43,1.43,0,0,0,.23-.2,1.57,1.57,0,0,0,.46-1.1,1.63,1.63,0,0,0,0-.31" transform="translate(-7 0)" style="fill:#dd2b57"/><path id="Fill-6" d="M29.48,46.53a1.4,1.4,0,0,0-.09-.29c0-.09-.09-.18-.14-.27a1.5,1.5,0,0,0-.2-.24,2.11,2.11,0,0,0-.23-.19,1.16,1.16,0,0,0-.27-.14,1.71,1.71,0,0,0-.3-.09,1.57,1.57,0,0,0-.61,0,1.4,1.4,0,0,0-.29.09,1.16,1.16,0,0,0-.27.14l-.24.19a2.23,2.23,0,0,0-.19.24,1.16,1.16,0,0,0-.14.27,1.4,1.4,0,0,0-.09.29,1.63,1.63,0,0,0,0,.31,1.53,1.53,0,0,0,0,.3,1.71,1.71,0,0,0,.09.3.94.94,0,0,0,.14.26,1.55,1.55,0,0,0,.19.24,2.12,2.12,0,0,0,.24.2l.27.14a1.4,1.4,0,0,0,.29.09,1.63,1.63,0,0,0,.31,0,1.53,1.53,0,0,0,.3,0,1.71,1.71,0,0,0,.3-.09l.27-.14a1.43,1.43,0,0,0,.23-.2,1.16,1.16,0,0,0,.2-.24,2.15,2.15,0,0,0,.14-.26,1.71,1.71,0,0,0,.09-.3,1.53,1.53,0,0,0,0-.3,1.63,1.63,0,0,0,0-.31" transform="translate(-7 0)" style="fill:#dd2b57"/><path id="Fill-8" d="M69.32,18H63.77a1.57,1.57,0,1,0,0,3.13h5.55a1.57,1.57,0,0,0,0-3.13" transform="translate(-7 0)" style="fill:#dd2b57"/><path id="Fill-10" d="M68.42,29.76l-3.93-3.93A1.56,1.56,0,0,0,62.28,28L66.21,32a1.52,1.52,0,0,0,1.1.46,1.56,1.56,0,0,0,1.11-2.66" transform="translate(-7 0)" style="fill:#dd2b57"/><path id="Fill-12" d="M68.41,7.34a1.55,1.55,0,0,0-2.2,0l-3.93,3.92a1.57,1.57,0,0,0,1.11,2.67,1.52,1.52,0,0,0,1.1-.46l3.93-3.92a1.55,1.55,0,0,0,0-2.21" transform="translate(-7 0)" style="fill:#dd2b57"/><path id="Fill-14" d="M15.33,18.19H9.78a1.56,1.56,0,0,0,0,3.12h5.55a1.56,1.56,0,1,0,0-3.12" transform="translate(-7 0)" style="fill:#dd2b57"/><path id="Fill-16" d="M16.81,11.26,12.89,7.34a1.56,1.56,0,0,0-2.21,2.21l3.92,3.92a1.56,1.56,0,0,0,1.11.46,1.52,1.52,0,0,0,1.1-.46,1.56,1.56,0,0,0,0-2.21" transform="translate(-7 0)" style="fill:#dd2b57"/><path id="Fill-18" d="M16.81,25.83a1.56,1.56,0,0,0-2.21,0l-3.92,3.93a1.56,1.56,0,0,0,1.11,2.66,1.52,1.52,0,0,0,1.1-.46L16.81,28a1.56,1.56,0,0,0,0-2.21" transform="translate(-7 0)" style="fill:#dd2b57"/></g></g></svg>