<svg id="Réteg_1" data-name="Réteg 1" xmlns="http://www.w3.org/2000/svg" viewBox="0 0 80 76.79"><title>time</title><g id="Pink-Icon-_-Time" data-name="Pink-Icon-/-Time"><g id="icon"><path id="Fill-1" d="M44.63,15.07V11.78H52.2v3.28a32,32,0,0,0-7.57,0m-4-8.6a2.19,2.19,0,0,1,2.19-2.19H54a2.19,2.19,0,0,1,0,4.38H42.79A2.19,2.19,0,0,1,40.6,6.47M79.85,43.25A31.55,31.55,0,0,0,55.32,15.59v-4A5.31,5.31,0,0,0,54,1.16H42.79a5.31,5.31,0,0,0-1.28,10.46v4a31.49,31.49,0,0,0-18,11.47H12.21a1.57,1.57,0,0,0,0,3.13h9.13a31.57,31.57,0,0,0-2.77,6h-17a1.57,1.57,0,0,0,0,3.13H17.69a31.31,31.31,0,0,0-.78,6H10a1.56,1.56,0,0,0,0,3.12h7a31.53,31.53,0,0,0,1,6H7.81a1.56,1.56,0,1,0,0,3.12H18.93A31.56,31.56,0,0,0,45.32,77.8c1,.1,2.06.15,3.1.15a31.61,31.61,0,0,0,17.22-5.09,1.56,1.56,0,1,0-1.71-2.62,28.44,28.44,0,1,1,8.38-8.39,1.56,1.56,0,1,0,2.62,1.71,31.73,31.73,0,0,0,4.92-20.31" transform="translate(0 -1.16)" style="fill:#dd2b57"/><path id="Fill-4" d="M69.65,66a1.57,1.57,0,0,0-1.56,1.56,1.61,1.61,0,0,0,.46,1.11,1.56,1.56,0,0,0,1.1.45,1.58,1.58,0,0,0,1.11-.45,1.61,1.61,0,0,0,.46-1.11,1.57,1.57,0,0,0-.46-1.1A1.59,1.59,0,0,0,69.65,66" transform="translate(0 -1.16)" style="fill:#dd2b57"/><path id="Fill-6" d="M48.44,67.5A21.12,21.12,0,1,1,69.55,46.39,21.14,21.14,0,0,1,48.44,67.5m0-45.35A24.24,24.24,0,1,0,72.68,46.39,24.26,24.26,0,0,0,48.44,22.15" transform="translate(0 -1.16)" style="fill:#dd2b57"/><path id="Fill-8" d="M48.44,48.12a1.73,1.73,0,1,1,1.73-1.73,1.73,1.73,0,0,1-1.73,1.73m9.88-13.83L50.58,42a4.78,4.78,0,0,0-2.14-.5,4.86,4.86,0,0,0-2.15.5l-3.46-3.46a1.56,1.56,0,1,0-2.21,2.21l3.46,3.46a4.86,4.86,0,1,0,8.71,0l7.51-7.51.23-.23a1.56,1.56,0,0,0-2.21-2.21" transform="translate(0 -1.16)" style="fill:#dd2b57"/><path id="Fill-10" d="M65.14,44.84H63.7a1.57,1.57,0,1,0,0,3.13h1.44a1.57,1.57,0,1,0,0-3.13" transform="translate(0 -1.16)" style="fill:#dd2b57"/><path id="Fill-12" d="M33.18,44.81H31.73a1.56,1.56,0,1,0,0,3.12h1.45a1.56,1.56,0,1,0,0-3.12" transform="translate(0 -1.16)" style="fill:#dd2b57"/><path id="Fill-14" d="M48.46,32.69A1.56,1.56,0,0,0,50,31.13V29.68a1.57,1.57,0,0,0-3.13,0v1.45a1.56,1.56,0,0,0,1.57,1.56" transform="translate(0 -1.16)" style="fill:#dd2b57"/><path id="Fill-16" d="M48.42,60.08a1.56,1.56,0,0,0-1.56,1.57v1.44a1.56,1.56,0,1,0,3.12,0V61.65a1.56,1.56,0,0,0-1.56-1.57" transform="translate(0 -1.16)" style="fill:#dd2b57"/><path id="Fill-18" d="M1.56,54.47a1.56,1.56,0,0,0-1.1.45A1.59,1.59,0,0,0,0,56a1.57,1.57,0,0,0,1.56,1.56,1.59,1.59,0,0,0,1.11-.46A1.56,1.56,0,0,0,3.12,56a1.58,1.58,0,0,0-.45-1.11,1.58,1.58,0,0,0-1.11-.45" transform="translate(0 -1.16)" style="fill:#dd2b57"/></g></g></svg>