<?xml version="1.0" standalone="no"?>
<!DOCTYPE svg PUBLIC "-//W3C//DTD SVG 20010904//EN"
 "http://www.w3.org/TR/2001/REC-SVG-20010904/DTD/svg10.dtd">
<svg version="1.0" xmlns="http://www.w3.org/2000/svg"
 width="969.000000pt" height="969.000000pt" viewBox="0 0 969.000000 969.000000"
 preserveAspectRatio="xMidYMid meet">
<metadata>
Created by potrace 1.11, written by Peter Selinger 2001-2013
</metadata>
<g transform="translate(0.000000,969.000000) scale(0.100000,-0.100000)"
fill="#000000" stroke="none">
<path d="M6512 8286 c-56 -58 -102 -103 -102 -100 0 2 -19 -17 -42 -43 -24
-26 -66 -68 -95 -93 -28 -25 -52 -49 -53 -55 0 -5 -18 -23 -39 -40 -21 -16
-38 -32 -37 -35 1 -3 -26 -32 -61 -66 -35 -33 -63 -59 -63 -58 0 2 -29 -28
-64 -65 -36 -38 -67 -66 -70 -63 -3 3 -6 -2 -6 -12 0 -9 -4 -14 -10 -11 -5 3
-10 2 -10 -3 0 -10 -63 -77 -78 -84 -4 -2 -24 -22 -44 -46 -21 -23 -38 -40
-38 -38 0 2 -43 -40 -95 -94 -52 -53 -96 -95 -99 -93 -2 3 -7 -5 -11 -16 -3
-12 -10 -21 -14 -21 -11 0 -378 -369 -373 -375 3 -3 1 -5 -4 -5 -12 0 -194
-179 -194 -191 0 -5 -4 -9 -10 -9 -11 0 -190 -181 -190 -192 0 -5 -4 -8 -9 -8
-12 0 -561 -550 -561 -561 0 -5 -4 -9 -9 -9 -8 0 -1051 -1037 -1051 -1045 0
-9 1280 -1281 1285 -1277 3 3 5 1 5 -4 0 -11 119 -134 171 -178 17 -14 28 -26
26 -26 -3 0 75 -80 172 -178 97 -98 179 -176 184 -174 4 2 7 -1 7 -6 0 -11
500 -512 512 -512 4 0 8 5 8 12 0 6 2 9 5 6 5 -5 289 277 306 303 5 8 9 11 9
8 0 -3 85 78 188 180 103 102 186 189 184 194 -2 4 1 7 6 7 5 0 113 104 241
232 l232 232 -591 590 -590 591 1181 1181 1180 1181 -585 584 c-322 321 -589
585 -594 587 -4 1 -54 -45 -110 -102z"/>
<path d="M1420 6032 l-1180 -1177 576 -575 c317 -316 582 -583 588 -592 11
-15 -60 -90 -576 -605 l-588 -588 587 -587 c324 -323 591 -588 595 -588 9 0
2358 2346 2358 2354 0 3 -263 269 -585 590 -322 321 -585 587 -585 591 0 4
263 270 585 591 322 321 585 586 585 588 0 12 -88 95 -94 88 -4 -4 -6 -2 -4 3
4 14 -313 331 -326 327 -6 -2 -8 -1 -4 3 6 6 -735 755 -747 755 -3 0 -536
-530 -1185 -1178z"/>
<path d="M8196 7136 c-41 -40 -72 -77 -68 -81 4 -3 2 -5 -3 -3 -13 4 -791
-773 -787 -786 2 -6 1 -8 -3 -4 -4 4 -326 -311 -715 -700 l-708 -707 179 -179
c98 -98 179 -182 179 -187 0 -5 4 -9 9 -9 4 0 189 -181 410 -401 329 -330 399
-404 389 -416 -6 -8 -272 -274 -589 -591 l-578 -577 588 -587 c324 -324 592
-588 595 -588 9 0 2356 2346 2356 2354 0 4 -263 270 -585 591 -322 322 -585
587 -585 591 0 3 263 268 585 589 322 321 585 587 585 591 0 7 -1167 1174
-1174 1174 -3 0 -39 -33 -80 -74z"/>
</g>
</svg>
